<?xml version="1.0" encoding="UTF-8" standalone="no"?>
<!-- Created with Inkscape (http://www.inkscape.org/) -->

<svg
   version="1.1"
   id="svg1"
   width="1512"
   height="1512"
   viewBox="0 0 1512 1512"
   sodipodi:docname="Ally1.svg"
   inkscape:version="1.3.2 (091e20e, 2023-11-25)"
   inkscape:export-filename="../../Utopia/Assets/Sprites/Tetra.png"
   inkscape:export-xdpi="96"
   inkscape:export-ydpi="96"
   xmlns:inkscape="http://www.inkscape.org/namespaces/inkscape"
   xmlns:sodipodi="http://sodipodi.sourceforge.net/DTD/sodipodi-0.dtd"
   xmlns="http://www.w3.org/2000/svg"
   xmlns:svg="http://www.w3.org/2000/svg">
  <defs
     id="defs1" />
  <sodipodi:namedview
     id="namedview1"
     pagecolor="#505050"
     bordercolor="#eeeeee"
     borderopacity="1"
     inkscape:showpageshadow="0"
     inkscape:pageopacity="0"
     inkscape:pagecheckerboard="0"
     inkscape:deskcolor="#505050"
     inkscape:zoom="0.33472963"
     inkscape:cx="673.67804"
     inkscape:cy="809.60864"
     inkscape:window-width="1512"
     inkscape:window-height="917"
     inkscape:window-x="0"
     inkscape:window-y="65"
     inkscape:window-maximized="0"
     inkscape:current-layer="layer1"
     showguides="false"
     showgrid="false" />
  <g
     inkscape:groupmode="layer"
     id="layer1"
     inkscape:label="Layer1"
     style="display:inline">
    <path
       style="display:inline;fill:#ff00b2;fill-opacity:1;stroke-width:3.42516"
       d="m 689.43961,300.3658 c 3.35857,13.171 9.71278,63.0469 19.15485,81.4533 l 2.60588,-51.0602 c 0.0695,15.2977 3.24646,37.248 8.54786,52.5457 l 5.2853,-48.9226 c 2.78042,14.6091 7.37957,36.1977 12.75795,52.5457 2.42498,-13.3041 3.37653,-33.1174 4.08243,-44.6956 0.88127,11.7448 3.60977,30.272 7.94641,42.884 3.58189,-12.2783 8.34977,-36.1459 8.50903,-48.4243 l 8.93763,52.8659 c 21.01738,-72.7381 19.81347,-81.3224 23.32371,-98.0493 l -45.70958,-70.0471 c -18.34911,34.1845 -37.62866,33.9938 -55.44147,78.9045 z"
       id="path5"
       inkscape:label="path5"
       sodipodi:nodetypes="ccccccccccccc" />
    <path
       id="path1"
       style="display:inline;fill:#ffe6d5;fill-opacity:1;stroke-width:3.42516"
       d="m 747.48841,186.30546 c -39.58579,1.7421 -46.03154,10.77367 -45.34119,68.32017 1.696,18.78021 2.21827,41.71727 11.54068,55.35555 1.76082,18.02125 -4.61087,35.91192 -5.06831,48.90098 -33.54464,0.3516 -84.73529,11.112 -91.98108,40.524 -12.79429,51.9343 -35.10827,121.3615 -51.8883,311.9912 -10.57339,64.9712 -16.76625,154.1311 -21.93944,248.9225 l -7.05965,43.46244 c -0.60979,2.4956 1.83487,4.2014 3.93408,5.7422 0.62366,3.4574 3.72566,4.1458 5.78552,4.9771 3.3447,4.2057 5.96582,2.6989 7.86001,4.0787 3.07841,2.568 5.31196,2.8481 9.36364,3.4963 4.88674,-1.7192 10.26093,-6.1561 13.65829,-10.1577 4.1941,-5.3471 2.67493,-7.6278 2.43224,-14.37094 l -8.78477,-37.3186 c 20.69339,-89.763 35.97759,-169.7517 43.21999,-235.2058 23.40705,-82.9514 38.11276,-164.1559 47.49836,-244.2918 11.30269,49.6432 15.27392,37.6442 29.51578,182.6469 -26.07768,164.3754 -52.46913,331.9992 -64.23733,496.37464 l -19.22439,309.0014 c -0.56176,22.5299 -17.83059,29.1183 -10.95289,43.3961 l 49.88526,-0.5148 c 4.19062,-15.5124 -7.72076,-25.1093 -6.94354,-41.3632 l 55.24605,-300.5344 c 25.5832,-129.7607 51.67793,-259.52204 63.28168,-389.28274 2.48141,119.7883 18.31478,247.62064 34.89643,375.90304 l 46.62925,299.1209 c 1.94551,18.851 -13.7776,32.7846 -6.42494,56.5029 l 135.3347,0.111 c 4.4143,-4.0502 7.06205,-6.2821 7.06175,-10.3323 -51.54443,-5.2481 -71.18741,-15.4471 -99.75377,-54.6211 l -9.39757,-285.0729 c -10.5573,-163.42364 -36.25257,-330.88164 -66.85876,-500.05654 4.6777,-154.1751 12.99751,-130.8922 19.20143,-186.0059 11.94692,55.0575 15.62569,91.3857 54.36988,233.1804 5.80366,67.0064 26.46879,157.8852 45.18606,245.6361 l -4.3939,42.7233 c 2.17385,6.31594 3.97392,8.45054 7.29617,11.33254 2.51747,6.0761 10.22627,8.5936 13.31406,8.7978 2.93419,-0.3326 5.11459,0.1418 9.07735,-2.9618 3.32113,-1.1801 5.9024,-2.0121 7.98174,-4.1351 2.70836,-0.6304 4.70715,-2.2305 5.9,-4.3249 2.10492,-1.0662 3.42946,-2.6339 3.94561,-4.8443 l -13.9108,-44.22634 c -10.47876,-104.0025 -20.95726,-195.2061 -31.43597,-259.452 -31.05964,-233.8887 -52.97041,-290.1082 -58.14308,-300.2795 -19.73277,-38.8016 -69.24407,-43.5361 -95.43652,-39.9894 -1.10853,-8.0055 -4.40607,-13.41228 -2.44392,-24.50068 29.38066,-25.83578 31.66701,-55.19564 32.25543,-93.27633 -3.22449,-23.9211 -6.80058,-53.18339 -44.05132,-53.37909 z"
       sodipodi:nodetypes="ccccsccccccccccccccccccccccccccccccccccccccccscccc" />
    <path
       style="display:inline;fill:#333333;stroke-width:3.42516"
       d="m 708.71084,357.84095 c 5.88581,16.0223 25.33068,16.86905 41.42708,21.22215 16.75775,-9.4332 12.48325,-16.0961 11.44273,-23.7081 3.29448,-0.2945 15.66891,0.0341 19.3295,0.20346 31.38749,48.9532 32.35683,93.18084 37.48114,121.20004 -10.45508,66.71609 -22.13344,134.49602 -16.33635,202.23557 36.06767,143.3605 61.38519,425.30013 64.05828,450.67833 2.85889,54.4687 11.41611,229.2955 11.51687,319.112 -10.72109,1.1028 -13.87811,4.0732 -40.05568,1.1714 -13.02018,-94.4958 -51.46192,-263.155 -52.2104,-311.6018 -10.63986,-84.3454 -31.10118,-266.4115 -28.40528,-341.2916 -23.26505,213.3054 -73.4671,437.4172 -111.63982,655.4492 -12.34679,-0.8588 -21.22955,3.4669 -38.27212,-0.8861 2.05721,-328.8018 50.60369,-550.058 79.30517,-780.7917 3.18855,-61.1841 -17.27235,-151.39656 -26.38971,-191.55186 16.51365,-118.9181 18.91663,-99.84397 32.79172,-120.98607 2.67593,-0.2218 12.81742,-0.31082 15.95687,-0.45492 z"
       id="path6"
       inkscape:label="path6"
       sodipodi:nodetypes="ccccccccccccccccc" />
    <path
       style="display:inline;fill:#333333;fill-opacity:0.1;stroke-width:3.42516"
       d="m 713.63746,309.9094 c 12.27402,13.86573 30.8918,29.63704 36.93949,28.28286 3.31216,-0.74709 7.18386,-3.61244 8.66889,-5.16461 -0.19627,1.74894 -0.48148,3.27551 -0.58872,5.24703 -1.19395,2.0269 -6.41622,5.76867 -8.61319,5.8615 -12.8661,-3.40281 -29.67768,-16.15841 -36.04319,-26.29133 0.092,-3.63576 0.0164,-5.41673 -0.36328,-7.93545 z"
       id="path15"
       sodipodi:nodetypes="ccccccc" />
    <path
       style="display:inline;fill:#ffffff;stroke-width:1.90472"
       d="m 739.63917,314.14391 c -0.40642,0.0628 0.44258,-1.2687 2.9873,-1.20564 13.86099,-0.12335 14.35951,-0.0439 17.62407,-0.1198 0.94191,0.18891 0.51302,1.04351 0.23016,1.14109 -11.22433,0.1545 -16.76992,-0.0582 -20.84143,0.18435 z"
       id="path14"
       sodipodi:nodetypes="cccccc" />
    <path
       style="display:inline;fill:#e6e6e6;fill-opacity:1;stroke-width:3.77953"
       d="m 598.06122,1421.3901 7.75025,18.8733 22.05611,-18.5272 17.20375,18.086 14.55703,-20.2916 8.82244,-74.5496 -37.57455,39.5801 -29.31474,-37.2464 z"
       id="path22"
       sodipodi:nodetypes="ccccccccc" />
    <path
       style="display:inline;fill:#e6e6e6;fill-opacity:1;stroke-width:3.77953"
       d="m 601.15107,1339.9656 29.82378,35.3363 38.56341,-38.7643 21.09395,-100.6372 -33.54719,-107.5103 -55.7231,111.8387 z"
       id="path23"
       sodipodi:nodetypes="ccccccc" />
    <path
       style="display:inline;fill:#e6e6e6;fill-opacity:1;stroke-width:3.77953"
       d="m 683.88161,619.85549 54.45628,31.42249 20.98343,33.88839 c 8.15287,3.02047 9.26347,2.83234 16.63681,-0.53667 l 11.64373,-33.36194 12.73745,-15.31212 2.02266,42.42996 -27.77128,38.92771 -62.67322,-38.83169 -26.42584,-26.42584 z"
       id="path33"
       sodipodi:nodetypes="ccccccccccc" />
    <path
       style="fill:#ff00b2;fill-opacity:1;stroke-width:3.77953"
       d="m 685.45594,651.46202 c 52.27556,62.47453 114.87609,45.23015 116.64891,16.10939 69.34223,253.12733 -64.13355,444.07179 -230.18993,691.66439 52.03788,-329.3702 -6.08589,-213.2128 113.54102,-707.77378 z"
       id="path19"
       sodipodi:nodetypes="cccc" />
    <path
       style="fill:#ff00b2;fill-opacity:1;stroke-width:3.77953"
       d="M 693.18427,356.93795 C 622.8942,351.92249 541.42172,432.82889 524.1084,683.34832 560.89805,632.16786 623.51875,623.60293 660.30841,482.57072 Z"
       id="path20"
       sodipodi:nodetypes="cccc" />
    <path
       id="path28"
       style="display:inline;fill:#e6e6e6;fill-opacity:1;stroke-width:3.77953"
       d="m 761.53629,355.04688 19.50677,37.78519 -23.55719,40.61644 -50.40801,-38.87318 1.74358,-36.83119 L 681.47379,396.5 759.4523,459.22461 799.57926,390.875 Z"
       sodipodi:nodetypes="ccccccccc" />
    <path
       style="display:inline;fill:#ffffff;stroke-width:4.14303"
       d="m 738.10478,263.39223 c -5.06514,-6.7019 -8.22655,-7.7622 -15.82085,-8.9864 -7.09337,0.4939 -12.12463,0.1863 -18.40528,2.9696 3.19166,5.4129 0.43566,14.0748 14.38963,14.6981 8.7565,-0.099 1.64266,0.1107 10.52422,-0.4412 3.57573,-2.2659 7.37751,-6.3607 9.31228,-8.2401 z"
       id="path8"
       sodipodi:nodetypes="cccccc" />
    <path
       style="display:inline;fill:#ff00b2;fill-opacity:1;stroke-width:4.23239"
       d="m 733.14579,258.12743 c -4.85199,-4.3986 -16.6476,-4.0632 -22.94862,-2.5435 -0.51342,8.2494 4.31083,14.3128 11.01697,16.4785 1.55046,-0.095 4.37469,-0.01 5.91813,-0.281 4.84743,-0.999 11.48474,-9.2593 6.01352,-13.654 z"
       id="path9"
       sodipodi:nodetypes="ccccc" />
    <path
       style="display:inline;fill:#ff00b2;fill-opacity:1;stroke-width:4.14303"
       d="m 703.26871,257.58613 c 12.50189,-3.3093 24.2683,-5.1548 34.62646,3.8563 -10.41742,-12.1955 -25.81634,-8.2141 -34.62646,-3.8563 z"
       id="path10"
       sodipodi:nodetypes="ccc" />
    <path
       style="display:inline;fill:#ff00b2;fill-opacity:1;stroke-width:3.06566"
       d="m 763.08087,251.89213 c 9.8283,-4.3187 16.85656,-4.124 25.35777,1.4624 -8.26038,-8.1385 -15.75312,-8.0726 -25.35777,-1.4624 z"
       id="path10-8-6"
       sodipodi:nodetypes="ccc" />
    <path
       style="display:inline;fill:#ff00b2;fill-opacity:1;stroke-width:3.01349"
       d="m 733.8612,251.92623 c -9.44751,-4.4617 -19.9203,-4.2203 -28.19796,1.2408 8.07393,-8.0164 18.99258,-7.9904 28.19796,-1.2408 z"
       id="path10-8-6-6"
       sodipodi:nodetypes="ccc" />
    <path
       style="display:inline;fill:#ffffff;stroke-width:3.94212"
       d="m 758.44556,263.47633 c 4.5858,-6.7019 6.92441,-8.1478 13.80001,-9.372 6.42208,0.4939 10.97719,0.1863 16.66345,2.9697 -2.88962,5.4128 0.0143,13.7152 -12.6191,14.3386 -7.92781,-0.099 -1.48719,0.1107 -9.52823,-0.4412 -3.23733,-2.2659 -6.56446,-5.6157 -8.31613,-7.4951 z"
       id="path8-9"
       sodipodi:nodetypes="cccccc" />
    <path
       style="display:inline;fill:#ff00b2;fill-opacity:1;stroke-width:3.92566"
       d="m 789.20187,257.15443 c -11.22443,-3.3092 -21.5648,-4.9078 -30.86455,4.1033 9.35295,-12.1954 22.95467,-8.461 30.86455,-4.1033 z"
       id="path10-5"
       sodipodi:nodetypes="ccc" />
    <path
       style="display:inline;fill:#ff00b2;fill-opacity:1;stroke-width:4.13743"
       d="m 765.40083,256.29203 c 9.23589,-3.8758 15.9915,-1.2231 22.01293,0.2966 0.49064,8.2494 -4.11955,12.7375 -10.52813,14.9031 -1.48166,-0.095 -4.18058,-0.01 -5.65553,-0.281 -4.63234,-0.999 -11.05772,-10.5241 -5.82927,-14.9187 z"
       id="path9-5"
       sodipodi:nodetypes="ccccc" />
    <path
       style="display:inline;fill:#e6e6e6;fill-opacity:1;stroke-width:3.77953"
       d="m 723.91623,539.05801 10.96658,81.79795 32.8941,54.10325 21.15177,-59.47811 6.38615,-83.23566 -34.47528,-35.40606 z"
       id="path47"
       sodipodi:nodetypes="ccccccc"
       inkscape:label="path47" />
    <path
       style="fill:#e6e6e6;fill-opacity:1;stroke-width:3.77953"
       d="m 680.88681,403.90344 80.62186,69.75449 41.09565,-74.22575 c 8.16185,20.57064 11.37265,39.87763 15.79122,77.32986 -11.90022,72.06653 -32.82636,57.08451 -50.89888,73.94641 -12.93532,-10.51782 -83.77482,-2.77505 -107.09532,-68.88135 6.95529,-34.89906 13.53018,-57.15228 20.48547,-77.92366 z"
       id="path29"
       sodipodi:nodetypes="ccccccc" />
    <path
       id="path4"
       style="display:inline;fill:#ff00b2;fill-opacity:1;stroke-width:3.42516"
       inkscape:label="path4"
       d="m 743.49112,159 c -45.90662,0 -65.23079,12.9123 -69.64887,67.1231 -5.48553,58.1671 8.41071,115.6229 26.58459,170.5956 1.89532,-53.3381 7.33982,-95.69899 1.95798,-142.48415 5.87688,-7.15659 4.50843,-12.02541 8.17821,-13.53508 1.28206,1.4827 6.13641,15.48123 6.562,16.96393 l 5.3598,-20.8327 c 2.01563,3.2355 2.65051,19.63385 3.11895,22.20345 l 3.27387,-21.27235 c 2.95164,4.1525 2.40773,20.30069 3.5813,23.17799 l 4.56737,-24.41239 c 3.8653,24.8233 2.26806,41.1716 3.31388,61.6201 1.96395,-10.30205 5.29685,-19.63491 8.19112,-30.44493 1.87937,-7.01939 3.5738,-14.66162 4.58839,-23.59647 -0.34469,3.7201 2.63962,18.16 3.17535,21.5643 l 3.74223,-15.12623 2.97897,-12.04107 c 1.84796,4.0625 2.77222,15.61501 3.3651,18.16531 l 4.16261,-19.98921 c 2.08594,3.2727 2.11187,19.21382 2.99697,22.31422 l 7.31422,-16.8081 c 4.66373,3.35919 3.31339,7.82171 9.97828,12.71304 -4.86937,32.11858 -6.16292,56.02707 -4.10809,87.41973 1.22218,18.6718 1.04963,37.30144 2.11303,55.45481 20.02276,-69.8813 26.72099,-127.5967 23.0894,-180.0788 C 806.62693,175.0518 785.03938,159.4873 743.49113,159 Z"
       sodipodi:nodetypes="scccccccccccscccccccccsccss" />
    <path
       style="display:inline;fill:#333333;stroke-width:4.32916"
       d="m 586.44024,1070.4636 9.50089,66.7267 42.15476,-65.7833 8.8145,-48.2627 z"
       id="path11"
       sodipodi:nodetypes="ccccc" />
    <path
       style="fill:#e6e6e6;fill-opacity:1;stroke-width:3.77953"
       d="m 680.68982,741.04755 -21.90283,273.83765 -90.50567,67.6564 81.84926,-387.33292 z"
       id="path18"
       sodipodi:nodetypes="ccccc" />
    <path
       style="display:inline;fill:#333333;stroke-width:3.42831"
       d="m 533.94037,515.07443 4.83221,56.71417 29.98587,-33.40314 15.96698,-34.00914 z"
       id="path7"
       sodipodi:nodetypes="ccccc" />
    <path
       style="fill:#e6e6e6;fill-opacity:1;stroke-width:3.42831"
       d="M 654.27983,363.71836 584.42856,504.97058 520,519.03381 645.11773,319.4476 Z"
       id="path21"
       sodipodi:nodetypes="ccccc" />
    <path
       style="display:inline;fill:#333333;fill-opacity:0.1;stroke-width:3.77953"
       d="m 724.4405,543.53896 c 15.18352,4.00388 32.00406,5.04219 43.51248,12.38707 6.2193,-9.0937 17.76191,-10.77722 26.98385,-16.86827 L 795.11974,535.1 c -4.51957,3.99825 -20.50724,9.14295 -27.66108,16.12632 -6.35357,-5.16505 -22.71042,-5.44806 -43.58995,-11.58559 z"
       id="path48"
       sodipodi:nodetypes="ccccccc" />
    <path
       style="display:inline;fill:#333333;fill-opacity:1;stroke-width:3.77953"
       d="m 688.37965,237.91827 -11.50652,0.35601 5.52398,14.74423 9.16233,16.90402 3.76477,-19.56896 z"
       id="path24"
       sodipodi:nodetypes="cccccc" />
    <path
       style="fill:#e6e6e6;fill-opacity:1;stroke-width:3.77953"
       d="m 675.68476,166.38416 17.94953,31.53451 1.55637,53.20874 -19.99898,-14.13421 z"
       id="path17"
       sodipodi:nodetypes="ccccc" />
    <path
       style="display:inline;fill:#333333;fill-opacity:1;stroke-width:3.18766"
       d="m 806.95564,238.22449 8.18487,0.35601 -1.25767,14.06085 -7.38715,17.53407 -2.23899,-20.64071 z"
       id="path24-7"
       sodipodi:nodetypes="cccccc" />
    <path
       style="display:inline;fill:#e6e6e6;fill-opacity:1;stroke-width:3.18766"
       d="m 816.17222,160.48282 -13.29154,26.40965 c 1.81952,2.87376 1.14526,3.13768 0.33721,7.12603 l 1.00342,55.55984 12.11526,-12.27892 z"
       id="path17-5"
       sodipodi:nodetypes="cccccc" />
    <path
       style="display:inline;fill:#333333;fill-opacity:0.1;stroke-width:6.51894"
       d="m 753.26871,272 1.61552,11.29665 -1.01162,8.89221 2.28229,-8.61665 z"
       id="path32"
       sodipodi:nodetypes="ccccc" />
    <path
       style="fill:#333333;stroke-width:3.77953"
       d="m 589.51174,494.51038 -6.80264,-11.10635 12.21699,0.83297 13.88294,8.88509 z"
       id="path2" />
    <path
       style="display:inline;fill:#333333;stroke-width:3.77953"
       d="m 604.11102,465.80665 -6.80264,-11.10635 12.21699,0.83297 13.88294,8.88509 z"
       id="path2-6" />
    <path
       style="display:inline;fill:#333333;stroke-width:3.77953"
       d="m 617.1906,438.14722 -6.80264,-11.10635 12.21699,0.83297 13.88294,8.88509 z"
       id="path2-6-1" />
    <path
       style="display:inline;fill:#333333;stroke-width:3.77953"
       d="m 630.61516,412.27065 -6.80264,-11.10635 12.21699,0.83297 13.88294,8.88509 z"
       id="path2-6-1-7" />
    <path
       style="display:inline;fill:#333333;stroke-width:3.77953"
       d="m 643.25633,387.08369 -6.80264,-11.10635 12.21699,0.83297 13.88294,8.88509 z"
       id="path2-6-1-7-4" />
    <path
       style="display:inline;fill:#333333;stroke-width:5.70432"
       d="m 659.54425,1007.618 -14.71789,-13.04796 18.07481,-4.09906 24.01074,6.77733 z"
       id="path2-5" />
    <path
       style="display:inline;fill:#333333;stroke-width:5.70432"
       d="m 664.7757,950.00429 -14.71788,-13.048 18.07479,-4.09907 24.01074,6.77732 z"
       id="path2-6-5" />
    <path
       style="display:inline;fill:#333333;stroke-width:5.70432"
       d="m 667.88467,899.47768 -14.71792,-13.048 18.07482,-4.09905 24.01074,6.77732 z"
       id="path2-6-1-5" />
    <path
       style="display:inline;fill:#333333;stroke-width:5.70432"
       d="m 672.56046,844.64874 -14.71789,-13.04801 18.0748,-4.09907 24.01073,6.77734 z"
       id="path2-6-1-7-8" />
    <path
       style="display:inline;fill:#333333;stroke-width:5.70432"
       d="m 677.70669,790.81593 -14.71789,-13.048 18.07481,-4.09905 24.01073,6.77731 z"
       id="path2-6-1-7-4-2" />
    <path
       style="fill:#e6e6e6;fill-opacity:1;stroke-width:3.77953"
       d="m 735.60047,600.92534 -24.47207,-10.95063 -28.68226,7.89841 30.79713,16.04356 27.79544,25.9827 13.5956,-16.01259 z"
       id="path12"
       sodipodi:nodetypes="ccccccc" />
    <path
       style="fill:#e6e6e6;fill-opacity:1;stroke-width:3.77953"
       d="m 784.62368,640.00836 -9.48018,-15.68897 11.31429,-23.65605 16.43792,-9.82247 -2.03638,27.30555 z"
       id="path25"
       sodipodi:nodetypes="cccccc" />
    <path
       style="fill:#333333;fill-opacity:0.1;stroke-width:3.77953"
       d="m 786.39379,600.67385 -2.1436,1.54168 -10.4504,22.29997 7.50596,12.69123 0.53641,-1.7458 -6.74994,-11.06224 z"
       id="path35"
       sodipodi:nodetypes="ccccccc" />
    <path
       style="fill:#e6e6e6;fill-opacity:1;stroke-width:3.77953"
       d="m 542.49226,957.61042 3.03865,-1.45763 9.0779,-26.79754 7.66352,27.74073 1.96071,2.61261 15.10218,-20.56052 17.20078,-69.73478 -1.68721,-2.80926 -4.57367,-2.73221 -1.37458,8.92846 -28.77699,26.65261 -11.61296,-32.93843 -1.26672,3.31064 -6.27249,71.94964 z"
       id="path36"
       sodipodi:nodetypes="ccccccccccccccc" />
    <path
       style="fill:#e6e6e6;fill-opacity:1;stroke-width:3.77953"
       d="m 561.67802,889.24979 35.60214,-27.8042 14.51927,-85.67947 0.0138,-12.70022 -2.34845,-9.4205 -1.09612,8.66856 -19.63226,-76.97912 -33.98759,77.68593 -9.24656,81.40008 1.83637,17.08758 z"
       id="path37"
       sodipodi:nodetypes="ccccccccccc" />
    <path
       style="fill:#e5e5e5;fill-opacity:1;stroke-width:3.77953"
       d="m 708.77206,357.6536 -0.008,-1.98827 4.78474,7.31913 5.49468,-3.94312 3.21554,10.43415 6.72553,-5.77199 4.59683,9.93462 5.82769,-15.0513 9.32431,18.54792 4.21189,-18.64911 4.11338,13.15443 1.99806,-8.08433 2.66409,3.08917 -0.62229,-5.78358 1.51011,3.54667 -1.1771,-8.65616 c 13.85986,41.08486 -48.17779,21.93015 -52.65944,1.90177 z"
       id="path38"
       sodipodi:nodetypes="cccccccccccccccccc" />
    <path
       style="display:inline;fill:#333333;fill-opacity:1;stroke-width:3.77953"
       d="m 318.87816,1180.7837 8.37108,25.644 -24.65568,13.8187 -42.79001,-1.6451 -22.16721,-43.1517 27.04196,28.9132 39.09394,-4.7912 z"
       id="path39-5"
       sodipodi:nodetypes="cccccccc" />
    <path
       style="display:inline;fill:#333333;fill-opacity:1;stroke-width:3.77953"
       d="m 347.40492,1084.8446 8.37108,25.644 -24.65568,13.8187 -42.79001,-1.6451 -22.16721,-43.1517 27.04196,28.9132 39.09394,-4.7912 z"
       id="path39-5-8"
       sodipodi:nodetypes="cccccccc" />
    <path
       style="display:inline;fill:#333333;fill-opacity:1;stroke-width:3.77953"
       d="m 370.16977,995.22959 8.37108,25.64401 -24.65568,13.8187 -42.79001,-1.6451 -22.16721,-43.15171 27.04196,28.91321 39.09394,-4.7912 z"
       id="path39-5-8-1"
       sodipodi:nodetypes="cccccccc" />
    <path
       style="display:inline;fill:#333333;fill-opacity:1;stroke-width:5.91856"
       d="m 476.9353,742.85148 20.62763,-143.71405 c -27.18035,-22.33297 -46.24734,-24.36367 -77.33401,-13.92724 l -70.71057,391.90964 -75.34407,297.80617 17.96502,59.2682 96.13256,19.436 35.94704,-51.9239 19.96757,-313.03749 z"
       id="path3"
       sodipodi:nodetypes="cccccccccc" />
    <path
       style="display:inline;fill:#ff00b2;fill-opacity:1;stroke-width:5.91856"
       d="m 441.19418,579.97721 -66.44544,385.31726 16.71746,56.79793 -28.61567,184.0169 -78.35331,27.6886 -2.56895,11.2927 93.99394,-33.4693 28.76814,-187.8826 -18.26762,-57.4746 62.34069,-386.94691 c -1.72134,0.1325 -5.37628,0.18737 -7.56924,0.66002 z"
       id="path13"
       sodipodi:nodetypes="ccccccccccc" />
    <path
       style="display:inline;fill:#e6e6e6;fill-opacity:1;stroke-width:5.91856"
       d="m 288.05948,1216.2659 62.75131,-23.2899 27.50232,-174.658 -23.3659,-70.67683 c -24.31416,77.35583 -56.57674,166.72753 -66.88773,268.62473 z"
       id="path16"
       sodipodi:nodetypes="ccccc" />
    <path
       style="display:inline;fill:#333333;fill-opacity:1;stroke-width:3.77953"
       d="m 319.49513,1106.9467 25.20978,-9.5997 -4.74067,-27.8637 -28.1649,-32.2557 -47.49842,9.8669 39.4841,2.8716 20.83542,33.4242 z"
       id="path39-7"
       sodipodi:nodetypes="cccccccc" />
    <path
       style="display:inline;fill:#333333;fill-opacity:1;stroke-width:3.77953"
       d="m 343.93355,1015.1542 25.20978,-9.5997 -4.74067,-27.86369 -28.1649,-32.2557 -47.49842,9.8669 39.4841,2.8716 20.83542,33.4242 z"
       id="path39-7-3"
       sodipodi:nodetypes="cccccccc" />
    <path
       style="display:inline;fill:#333333;fill-opacity:1;stroke-width:3.77953"
       d="m 300.12929,1196.4536 25.20978,-9.5997 -4.74067,-27.8637 -28.1649,-32.2557 -47.49842,9.8669 39.4841,2.8716 20.83542,33.4242 z"
       id="path39"
       sodipodi:nodetypes="cccccccc" />
  </g>
</svg>
