<?xml version="1.0" encoding="UTF-8" standalone="no"?>
<!-- Created with Inkscape (http://www.inkscape.org/) -->

<svg
   version="1.1"
   id="svg1"
   width="1512"
   height="1512"
   viewBox="0 0 1512 1512"
   sodipodi:docname="Ally3.svg"
   inkscape:version="1.3.2 (091e20e, 2023-11-25)"
   inkscape:export-filename="../../Utopia/Assets/Sprites/Tetra.png"
   inkscape:export-xdpi="96"
   inkscape:export-ydpi="96"
   xmlns:inkscape="http://www.inkscape.org/namespaces/inkscape"
   xmlns:sodipodi="http://sodipodi.sourceforge.net/DTD/sodipodi-0.dtd"
   xmlns="http://www.w3.org/2000/svg"
   xmlns:svg="http://www.w3.org/2000/svg">
  <defs
     id="defs1" />
  <sodipodi:namedview
     id="namedview1"
     pagecolor="#505050"
     bordercolor="#eeeeee"
     borderopacity="1"
     inkscape:showpageshadow="0"
     inkscape:pageopacity="0"
     inkscape:pagecheckerboard="0"
     inkscape:deskcolor="#505050"
     inkscape:zoom="2.0236097"
     inkscape:cx="673.30178"
     inkscape:cy="272.77988"
     inkscape:window-width="1512"
     inkscape:window-height="837"
     inkscape:window-x="0"
     inkscape:window-y="38"
     inkscape:window-maximized="0"
     inkscape:current-layer="layer1"
     showguides="false"
     showgrid="false" />
  <g
     inkscape:groupmode="layer"
     id="layer1"
     inkscape:label="Layer1"
     style="display:inline">
    <path
       style="display:inline;fill:#3be8ab;fill-opacity:1;stroke-width:3.77953"
       d="m 701.44126,197.24169 c -24.45074,73.56535 -12.24536,119.68714 10.78405,152.38424 -5.50938,-20.95143 -13.52459,-41.74523 -6.47875,-62.21365 0.0631,25.21495 2.16026,33.58374 17.55895,56.98958 -5.56014,-25.7209 -3.23323,-32.4618 3.69662,-47.43997 -4.89878,19.30144 2.50053,36.68307 10.78181,53.90905 -6.45297,-30.04142 -3.17173,-37.35366 4.00467,-52.06074 9.50565,15.4049 8.21869,32.60738 6.16104,49.90438 9.88582,-19.02556 17.0603,-31.75914 9.24155,-52.3688 14.83378,14.904 13.07918,30.74904 9.5496,50.21244 13.33137,-24.25146 19.38232,-36.20748 9.54961,-62.22646 15.75981,16.87559 4.47348,45.18638 1.8914,66.61121 21.21116,-37.15237 39.89005,-86.80427 7.0421,-159.63456 l -38.19842,-10.79008 z"
       id="path3"
       sodipodi:nodetypes="ccccccccccccccc" />
    <path
       id="path1"
       style="display:inline;fill:#6c5353;fill-opacity:1;stroke-width:3.42516"
       d="m 747.48841,186.30546 c -39.58579,1.7421 -46.03154,10.77367 -45.34119,68.32017 1.696,18.78021 2.21827,41.71727 11.54068,55.35555 1.76082,18.02125 -4.61087,35.91192 -5.06831,48.90098 -33.54464,0.3516 -84.73529,11.112 -91.98108,40.524 -12.79429,51.9343 -35.10827,121.3615 -51.8883,311.9912 -10.57339,64.9712 -16.76625,154.1311 -21.93944,248.9225 l -7.05965,43.46244 c -0.60979,2.4956 1.83487,4.2014 3.93408,5.7422 0.62366,3.4574 3.72566,4.1458 5.78552,4.9771 3.3447,4.2057 5.96582,2.6989 7.86001,4.0787 3.07841,2.568 5.31196,2.8481 9.36364,3.4963 4.88674,-1.7192 10.26093,-6.1561 13.65829,-10.1577 4.1941,-5.3471 2.67493,-7.6278 2.43224,-14.37094 l -8.78477,-37.3186 c 20.69339,-89.763 35.97759,-169.7517 43.21999,-235.2058 23.40705,-82.9514 38.11276,-164.1559 47.49836,-244.2918 11.30269,49.6432 15.27392,37.6442 29.51578,182.6469 -26.07768,164.3754 -52.46913,331.9992 -64.23733,496.37464 l -19.22439,309.0014 c -0.56176,22.5299 -17.83059,29.1183 -10.95289,43.3961 l 49.88526,-0.5148 c 4.19062,-15.5124 -7.72076,-25.1093 -6.94354,-41.3632 l 55.24605,-300.5344 c 25.5832,-129.7607 51.67793,-259.52204 63.28168,-389.28274 2.48141,119.7883 18.31478,247.62064 34.89643,375.90304 l 46.62925,299.1209 c 1.94551,18.851 -13.7776,32.7846 -6.42494,56.5029 l 135.3347,0.111 c 4.4143,-4.0502 7.06205,-6.2821 7.06175,-10.3323 -51.54443,-5.2481 -71.18741,-15.4471 -99.75377,-54.6211 l -9.39757,-285.0729 c -10.5573,-163.42364 -36.25257,-330.88164 -66.85876,-500.05654 4.6777,-154.1751 12.99751,-130.8922 19.20143,-186.0059 11.94692,55.0575 15.62569,91.3857 54.36988,233.1804 5.80366,67.0064 26.46879,157.8852 45.18606,245.6361 l -4.3939,42.7233 c 2.17385,6.31594 3.97392,8.45054 7.29617,11.33254 2.51747,6.0761 10.22627,8.5936 13.31406,8.7978 2.93419,-0.3326 5.11459,0.1418 9.07735,-2.9618 3.32113,-1.1801 5.9024,-2.0121 7.98174,-4.1351 2.70836,-0.6304 4.70715,-2.2305 5.9,-4.3249 2.10492,-1.0662 3.42946,-2.6339 3.94561,-4.8443 l -13.9108,-44.22634 c -10.47876,-104.0025 -20.95726,-195.2061 -31.43597,-259.452 -31.05964,-233.8887 -52.97041,-290.1082 -58.14308,-300.2795 -19.73277,-38.8016 -69.24407,-43.5361 -95.43652,-39.9894 -1.10853,-8.0055 -4.40607,-13.41228 -2.44392,-24.50068 29.38066,-25.83578 31.66701,-55.19564 32.25543,-93.27633 -3.22449,-23.9211 -6.80058,-53.18339 -44.05132,-53.37909 z"
       sodipodi:nodetypes="ccccsccccccccccccccccccccccccccccccccccccccccscccc" />
    <path
       style="display:inline;fill:#333333;stroke-width:3.42516"
       d="m 708.71084,357.84095 c 5.88581,16.0223 25.33068,16.86905 41.42708,21.22215 16.75775,-9.4332 12.48325,-16.0961 11.44273,-23.7081 3.29448,-0.2945 15.66891,0.0341 19.3295,0.20346 31.38749,48.9532 32.35683,93.18084 37.48114,121.20004 -10.45508,66.71609 -22.13344,134.49602 -16.33635,202.23557 36.06767,143.3605 61.38519,425.30013 64.05828,450.67833 2.85889,54.4687 11.41611,229.2955 11.51687,319.112 -10.72109,1.1028 -13.87811,4.0732 -40.05568,1.1714 -13.02018,-94.4958 -51.46192,-263.155 -52.2104,-311.6018 -10.63986,-84.3454 -31.10118,-266.4115 -28.40528,-341.2916 -23.26505,213.3054 -73.4671,437.4172 -111.63982,655.4492 -12.34679,-0.8588 -21.22955,3.4669 -38.27212,-0.8861 2.05721,-328.8018 50.60369,-550.058 79.30517,-780.7917 3.18855,-61.1841 -17.27235,-151.39656 -26.38971,-191.55186 16.51365,-118.9181 18.91663,-99.84397 32.79172,-120.98607 2.67593,-0.2218 12.81742,-0.31082 15.95687,-0.45492 z"
       id="path6"
       inkscape:label="path6"
       sodipodi:nodetypes="ccccccccccccccccc" />
    <path
       style="display:inline;fill:#333333;fill-opacity:0.1;stroke-width:3.42516"
       d="m 713.63746,309.9094 c 12.27402,13.86573 30.8918,29.63704 36.93949,28.28286 3.31216,-0.74709 7.18386,-3.61244 8.66889,-5.16461 -0.19627,1.74894 -0.48148,3.27551 -0.58872,5.24703 -1.19395,2.0269 -6.41622,5.76867 -8.61319,5.8615 -12.8661,-3.40281 -29.67768,-16.15841 -36.04319,-26.29133 0.092,-3.63576 0.0164,-5.41673 -0.36328,-7.93545 z"
       id="path15"
       sodipodi:nodetypes="ccccccc" />
    <path
       style="display:inline;fill:#ffffff;stroke-width:1.90472"
       d="m 739.63917,314.14391 c -0.40642,0.0628 0.44258,-1.2687 2.9873,-1.20564 13.86099,-0.12335 14.35951,-0.0439 17.62407,-0.1198 0.94191,0.18891 0.51302,1.04351 0.23016,1.14109 -11.22433,0.1545 -16.76992,-0.0582 -20.84143,0.18435 z"
       id="path14"
       sodipodi:nodetypes="cccccc" />
    <path
       style="display:inline;fill:#ffffff;stroke-width:4.14303"
       d="m 738.10478,263.39223 c -5.06514,-6.7019 -8.22655,-7.7622 -15.82085,-8.9864 -7.09337,0.4939 -12.12463,0.1863 -18.40528,2.9696 3.19166,5.4129 0.43566,14.0748 14.38963,14.6981 8.7565,-0.099 1.64266,0.1107 10.52422,-0.4412 3.57573,-2.2659 7.37751,-6.3607 9.31228,-8.2401 z"
       id="path8"
       sodipodi:nodetypes="cccccc" />
    <path
       style="display:inline;fill:#3be8ab;fill-opacity:1;stroke-width:4.23239"
       d="m 733.14579,258.12743 c -4.85199,-4.3986 -16.6476,-4.0632 -22.94862,-2.5435 -0.51342,8.2494 4.31083,14.3128 11.01697,16.4785 1.55046,-0.095 4.37469,-0.01 5.91813,-0.281 4.84743,-0.999 11.48474,-9.2593 6.01352,-13.654 z"
       id="path9"
       sodipodi:nodetypes="ccccc" />
    <path
       style="display:inline;fill:#3be8ab;fill-opacity:1;stroke-width:4.14303"
       d="m 703.26871,257.58613 c 12.50189,-3.3093 24.2683,-5.1548 34.62646,3.8563 -10.41742,-12.1955 -25.81634,-8.2141 -34.62646,-3.8563 z"
       id="path10"
       sodipodi:nodetypes="ccc" />
    <path
       style="display:inline;fill:#3be8ab;fill-opacity:1;stroke-width:3.06566"
       d="m 763.08087,251.89213 c 9.8283,-4.3187 16.85656,-4.124 25.35777,1.4624 -8.26038,-8.1385 -15.75312,-8.0726 -25.35777,-1.4624 z"
       id="path10-8-6"
       sodipodi:nodetypes="ccc" />
    <path
       style="display:inline;fill:#3be8ab;fill-opacity:1;stroke-width:3.01349"
       d="m 733.8612,251.92623 c -9.44751,-4.4617 -19.9203,-4.2203 -28.19796,1.2408 8.07393,-8.0164 18.99258,-7.9904 28.19796,-1.2408 z"
       id="path10-8-6-6"
       sodipodi:nodetypes="ccc" />
    <path
       style="display:inline;fill:#ffffff;stroke-width:3.94212"
       d="m 758.44556,263.47633 c 4.5858,-6.7019 6.92441,-8.1478 13.80001,-9.372 6.42208,0.4939 10.97719,0.1863 16.66345,2.9697 -2.88962,5.4128 0.0143,13.7152 -12.6191,14.3386 -7.92781,-0.099 -1.48719,0.1107 -9.52823,-0.4412 -3.23733,-2.2659 -6.56446,-5.6157 -8.31613,-7.4951 z"
       id="path8-9"
       sodipodi:nodetypes="cccccc" />
    <path
       style="display:inline;fill:#3be8ab;fill-opacity:1;stroke-width:3.92566"
       d="m 789.20187,257.15443 c -11.22443,-3.3092 -21.5648,-4.9078 -30.86455,4.1033 9.35295,-12.1954 22.95467,-8.461 30.86455,-4.1033 z"
       id="path10-5"
       sodipodi:nodetypes="ccc" />
    <path
       style="display:inline;fill:#3be8ab;fill-opacity:1;stroke-width:4.13743"
       d="m 765.40083,256.29203 c 9.23589,-3.8758 15.9915,-1.2231 22.01293,0.2966 0.49064,8.2494 -4.11955,12.7375 -10.52813,14.9031 -1.48166,-0.095 -4.18058,-0.01 -5.65553,-0.281 -4.63234,-0.999 -11.05772,-10.5241 -5.82927,-14.9187 z"
       id="path9-5"
       sodipodi:nodetypes="ccccc" />
    <path
       style="display:inline;fill:#333333;fill-opacity:0.1;stroke-width:6.51894"
       d="m 753.26871,272 1.61552,11.29665 -1.01162,8.89221 2.28229,-8.61665 z"
       id="path32"
       sodipodi:nodetypes="ccccc" />
    <path
       id="path2"
       style="fill:#3be8ab;fill-opacity:1;stroke-width:3.77953"
       d="M 748.02734 170.12695 C 738.55151 169.89254 728.99973 171.28245 720.33008 174.58203 C 718.23276 175.38025 715.87047 176.83078 713.50586 178.55664 C 700.56925 179.52706 693.2047 190.00106 685.40234 208.76562 C 687.97278 206.08379 690.38904 203.71858 692.69922 201.66211 C 678.66938 230.13453 686.81963 274.91358 713.5918 318.46875 C 710.7835 302.59677 707.22431 283.88662 704.41602 256.02344 C 705.13666 245.89061 708.02351 236.71986 712.8418 228.4082 C 712.32808 239.39894 712.43269 244.13438 720.33008 260.23633 C 718.07719 242.37287 721.98597 238.62958 732.03125 232.62109 C 733.61072 245.90292 738.24375 257.66999 746.07227 268.66016 C 741.49908 253.47218 740.71596 246.94898 751.68945 226.53711 C 758.34527 236.39466 759.39925 247.00177 757.89062 258.80859 C 762.95479 249.26773 767.82857 239.27191 762.44141 228.89453 C 775.42659 237.86941 778.35488 242.66869 777.72266 260.27148 C 782.89027 243.22465 782.52343 238.46375 780.70898 227.00391 C 787.49709 235.46575 789.08933 241.50825 791.1582 256.80859 L 783.51172 318.2832 C 799.91762 287.30185 808.69341 247.63714 804.44727 218.47852 C 807.58719 221.01178 810.89123 224.1545 814.50586 227.92578 C 810.26522 217.7271 806.14969 209.99313 801.20312 204.88672 C 798.1594 196.13415 793.44738 189.02517 786.79297 184.41211 C 786.79297 184.41211 772.96115 174.12288 764.79492 172.24219 C 759.37111 170.99308 753.71284 170.2676 748.02734 170.12695 z " />
    <path
       style="fill:#3be8ab;fill-opacity:1;stroke-width:3.77953"
       d="m 708.60918,358.03435 4.13315,-22.33311 -11.25436,-10.98094 c -24.06142,-7.41094 -38.52539,7.11517 -54.72918,17.66454 14.86535,3.63915 29.73071,3.17376 44.59606,17.80136 -18.15107,19.80118 -49.73161,71.60726 -17.96325,173.18416 1.03458,-56.13393 1.59294,-109.43082 33.62352,-157.06329 l 40.99306,19.80564 26.25398,-24.8722 c 23.31716,44.92775 33.28099,71.38707 34.08412,166.73582 24.15444,-87.49912 1.04823,-160.82758 -29.79726,-184.56841 8.95294,-12.54784 24.80332,-15.71776 38.49257,-19.20774 -15.23956,-9.81982 -31.67583,-15.84343 -46.91538,-9.24707 l -11.72667,12.30681 3.2103,19.45451 c 2.04325,10.09041 2.44373,14.17829 -11.79188,22.20862 -25.29801,-5.26258 -31.14618,-9.20256 -41.20878,-20.8887 z"
       id="path4"
       sodipodi:nodetypes="ccccccccccccccccc" />
    <path
       style="fill:#e6e6e6;fill-opacity:1;stroke-width:3.77953"
       d="m 686.43149,671.91414 c -29.20687,31.80877 -36.75535,102.49673 -51.37543,142.61843 l 37.87316,-36.08297 c -75.61839,257.235 -57.5365,456.2569 -93.09357,673.4306 288.08608,49.7076 239.00011,18.1009 342.71654,1.9622 C 879.47241,1231.5467 904.29155,998.67192 820.17176,776.37618 l 37.06194,28.82015 C 841.62177,765.16806 829.63505,701.20265 800.97729,670.01053 l -47.65374,34.4691 z"
       id="path5"
       sodipodi:nodetypes="cccccccccc" />
    <path
       style="fill:#e6e6e6;fill-opacity:1;stroke-width:3.77953"
       d="M 676.11151,469.73476 807.95374,538.63582 705.64969,377.99226 c -16.03714,20.57016 -27.89453,64.53597 -29.53818,91.7425 z"
       id="path7"
       sodipodi:nodetypes="cccc" />
    <path
       id="path11"
       style="fill:#e6e6e6;fill-opacity:1;stroke-width:3.77953"
       d="m 762.2749,415.3883 -17.0918,10.59766 -47.75,63.29882 -8.99414,30.08789 25.9375,-19.92773 45.96094,-60.45313 z m 19.27441,24.79531 -17.0918,10.59766 -41.41153,54.72325 -8.99414,30.08789 25.9375,-19.92773 39.62247,-51.87756 z m 14.16948,28.62194 -17.08984,10.59961 -27.00917,35.99187 -6.6468,26.79967 23.59016,-16.64147 25.21815,-33.14616 z"
       sodipodi:nodetypes="ccccccccccccccccccccc" />
    <path
       id="path11-8"
       style="display:inline;fill:#e6e6e6;fill-opacity:1;stroke-width:3.77953"
       d="m 725.89685,560.16603 4.28229,22.33328 44.58828,61.47399 25.47968,20.50739 -7.79752,-28.93153 -46.82683,-65.7088 z m -17.58695,28.54641 6.11337,23.6412 32.36899,43.4116 25.47963,18.8053 -8.31156,-28.57893 -34.09343,-46.29692 z m -12.59924,29.31332 4.28228,23.6412 18.40318,25.09752 22.72098,15.53337 -5.55287,-25.30896 -20.12762,-27.98283 z"
       sodipodi:nodetypes="ccccccccccccccccccccc" />
    <path
       style="fill:#e6e6e6;fill-opacity:1;stroke-width:3.77953"
       d="m 807.93322,541.58798 -122.0116,130.72066 114.80464,-39.70828 c 1.12617,-43.73698 4.80464,-60.67492 7.20696,-91.01238 z"
       id="path12"
       sodipodi:nodetypes="cccc" />
    <path
       style="fill:#333333;stroke-width:3.77953"
       d="m 663.99028,495.87509 c -36.24901,172.11345 -49.43143,318.74 -58.5931,480.38386 -28.26596,2.81391 -55.12502,14.06914 -87.86721,-9.97434 34.90685,-194.71723 58.48408,-391.45655 97.09213,-585.50863 26.84767,-13.97419 46.74417,-16.45452 75.87927,-20.69435 -30.57582,38.24377 -33.29684,96.19185 -26.51109,135.79346 z"
       id="path13"
       sodipodi:nodetypes="cccccc" />
    <path
       style="fill:#333333;stroke-width:3.77953"
       d="m 781.94681,356.34433 c 32.86726,39.23355 33.86585,75.12506 35.91272,121.98737 40.29561,167.54432 55.28131,325.59742 75.56914,485.63882 29.15927,14.26623 58.31855,1.44418 87.47782,-12.28773 C 936.44212,763.46805 914.7217,582.20632 853.12276,373.43833 c -32.34774,-11.5479 -37.52806,-14.61089 -71.17595,-17.094 z"
       id="path16"
       sodipodi:nodetypes="cccccc" />
    <path
       style="fill:#3be8ab;fill-opacity:1;stroke-width:3.77953"
       d="m 607.29877,1456.3245 c 0.40128,-223.4781 4.6789,-445.5855 85.88495,-619.73368 -59.78962,207.12988 -53.79171,412.34598 -53.56153,625.17838 z"
       id="path18"
       sodipodi:nodetypes="cccc" />
    <path
       style="fill:#3be8ab;fill-opacity:1;stroke-width:3.77953"
       d="m 860.92828,1468.9177 c -2.67619,-236.7661 33.26988,-286.253 -43.19881,-632.8923 95.49345,211.68 65.50521,413.4156 75.0099,623.7489 z"
       id="path19"
       sodipodi:nodetypes="cccc" />
    <path
       style="fill:#333333;fill-opacity:0.1;stroke-width:3.77953"
       d="m 699.78259,482.19891 39.40645,-51.70912 1.10163,1.59124 -38.25199,51.22188 z"
       id="path21"
       sodipodi:nodetypes="ccccc" />
    <path
       style="display:inline;fill:#333333;fill-opacity:0.1;stroke-width:3.77953"
       d="m 726.77547,496.29382 29.82904,-38.46735 1.10163,1.59124 -28.91461,37.80009 z"
       id="path21-5"
       sodipodi:nodetypes="ccccc" />
    <path
       style="display:inline;fill:#333333;fill-opacity:0.1;stroke-width:3.77953"
       d="m 752.92605,509.89371 20.13145,-26.03898 1.10163,1.59124 -19.32139,25.42921 z"
       id="path21-5-3"
       sodipodi:nodetypes="ccccc" />
    <path
       style="display:inline;fill:#333333;fill-opacity:0.1;stroke-width:3.77953"
       d="m 747.6194,606.16631 25.73967,35.94865 -1.8444,0.58638 -25.61252,-34.70204 z"
       id="path21-2"
       sodipodi:nodetypes="ccccc" />
    <path
       style="display:inline;fill:#333333;fill-opacity:0.1;stroke-width:3.77953"
       d="m 726.53114,628.80498 17.45801,23.48827 -1.84439,0.58639 -17.08835,-22.41834 z"
       id="path21-5-39"
       sodipodi:nodetypes="ccccc" />
    <path
       style="display:inline;fill:#333333;fill-opacity:0.1;stroke-width:3.77953"
       d="m 706.44948,650.33583 8.91652,11.79859 -1.84439,0.58639 -8.5712,-10.8453 z"
       id="path21-5-3-9"
       sodipodi:nodetypes="ccccc" />
    <path
       style="fill:#333333;fill-opacity:1;stroke-width:3.77953"
       d="m 676.82064,1466.9801 87.82969,-519.09004 74.82696,526.54124 -72.5009,25.5092 z"
       id="path17"
       sodipodi:nodetypes="ccccc" />
    <path
       id="path22"
       style="fill:#333333;fill-opacity:1;stroke-width:3.23734"
       d="m 709.20117,1022.5781 -45.96094,13.175 44.45704,10.9528 109.92578,0.3284 29.07617,-14.6804 -31.05469,-9.7542 z m 5.41602,58.3809 -45.96289,12.7685 44.45703,10.6147 109.92773,0.3159 29.07617,-14.2251 -31.05664,-9.4531 z m -0.14063,56.2383 -45.96094,12.7683 44.45704,10.6125 109.92578,0.3183 29.07617,-14.2251 -31.05469,-9.4554 z"
       sodipodi:nodetypes="ccccccccccccccccccccc" />
    <g
       id="g25"
       inkscape:label="Weapon">
      <path
         style="fill:#333333;stroke-width:3.77953"
         d="m 425.13387,369.49002 58.76784,514.98862 -28.62593,29.70095 -153.03029,42.87855 -56.52272,-6.19925 -199.757225,-473.9327 c 35.208751,-35.60872 62.689335,-54.31535 86.261685,-71.45343 34.197,-7.48638 143.55517,-42.21535 167.21154,-45.4225 23.82001,2.94226 84.73325,6.29746 125.6951,9.43976 z"
         id="path20"
         sodipodi:nodetypes="ccccccccc" />
      <path
         style="fill:#000000;stroke-width:3.77953;fill-opacity:0.25"
         d="m 244.90697,950.74996 54.42377,6.10879 156.05183,-42.76153 28.87792,-29.98861 -46.64894,-23.32448 -150.49839,42.20619 z"
         id="path23"
         sodipodi:nodetypes="ccccccc" />
      <path
         id="path24"
         style="fill:#3be8ab;fill-opacity:1;stroke-width:3.77953"
         d="M 417.69141 875.11523 C 416.25469 875.13938 414.85846 875.4181 413.73047 875.94336 C 409.64933 877.84379 405.71153 883.97929 407.68945 888.02344 C 409.42421 891.57039 417.67182 893.07178 421.23242 891.36523 C 425.16772 889.4791 427.15644 882.70102 425.3457 878.73047 C 424.20986 876.2398 420.85219 875.06211 417.69141 875.11523 z M 390.56836 882.74023 C 389.13164 882.76438 387.73541 883.04114 386.60742 883.56641 C 382.52629 885.46683 378.59043 891.60234 380.56836 895.64648 C 382.30312 899.19344 390.55072 900.69678 394.11133 898.99023 C 398.04662 897.1041 400.03339 890.32602 398.22266 886.35547 C 397.08681 883.8648 393.72914 882.68711 390.56836 882.74023 z M 362.31055 891.10938 C 360.87383 891.13352 359.4776 891.41224 358.34961 891.9375 C 354.26847 893.83793 350.33262 899.97343 352.31055 904.01758 C 354.04531 907.56453 362.29096 909.06788 365.85156 907.36133 C 369.78686 905.47519 371.77558 898.69712 369.96484 894.72656 C 368.829 892.2359 365.47133 891.05625 362.31055 891.10938 z M 333.50391 898.96484 C 332.06719 898.98899 330.67291 899.26771 329.54492 899.79297 C 325.46379 901.6934 321.52598 907.8289 323.50391 911.87305 C 325.23866 915.42 333.48627 916.92335 337.04688 915.2168 C 340.98217 913.33066 342.97089 906.55063 341.16016 902.58008 C 340.02431 900.08941 336.66469 898.91172 333.50391 898.96484 z M 426.5625 899.33984 C 425.12578 899.36399 423.7315 899.64271 422.60352 900.16797 C 418.52238 902.0684 414.58457 908.2039 416.5625 912.24805 C 418.29726 915.795 426.54486 917.29835 430.10547 915.5918 C 434.04076 913.70566 436.02949 906.92563 434.21875 902.95508 C 433.0829 900.46441 429.72328 899.28672 426.5625 899.33984 z M 399.44141 906.96484 C 398.00469 906.98899 396.60846 907.26771 395.48047 907.79297 C 391.39933 909.6934 387.46348 915.8289 389.44141 919.87305 C 391.17616 923.42 399.42182 924.92335 402.98242 923.2168 C 406.91772 921.33066 408.90644 914.55063 407.0957 910.58008 C 405.95986 908.08941 402.60219 906.91172 399.44141 906.96484 z M 302.70703 907.49023 C 301.27031 907.51438 299.87408 907.7931 298.74609 908.31836 C 294.66496 910.21879 290.7291 916.35429 292.70703 920.39844 C 294.44179 923.94539 302.68939 925.44874 306.25 923.74219 C 310.1853 921.85605 312.17207 915.07798 310.36133 911.10742 C 309.22548 908.61676 305.86781 907.43711 302.70703 907.49023 z M 371.18359 915.33594 C 369.74688 915.36008 368.35064 915.6388 367.22266 916.16406 C 363.14152 918.06449 359.20371 924.19999 361.18164 928.24414 C 362.9164 931.7911 371.164 933.29249 374.72461 931.58594 C 378.65991 929.6998 380.64863 922.92173 378.83789 918.95117 C 377.70205 916.46051 374.34437 915.28281 371.18359 915.33594 z M 342.37695 923.19141 C 340.94024 923.21555 339.54596 923.49427 338.41797 924.01953 C 334.33683 925.91996 330.39903 932.05351 332.37695 936.09766 C 334.11171 939.64461 342.35932 941.14795 345.91992 939.44141 C 349.85522 937.55527 351.84394 930.7772 350.0332 926.80664 C 348.89736 924.31597 345.53773 923.13828 342.37695 923.19141 z M 311.58008 931.7168 C 310.14336 931.74094 308.74713 932.01966 307.61914 932.54492 C 303.538 934.44535 299.60215 940.58085 301.58008 944.625 C 303.31484 948.17196 311.56049 949.67335 315.12109 947.9668 C 319.05639 946.08066 321.04511 939.30259 319.23438 935.33203 C 318.09853 932.84137 314.74086 931.66367 311.58008 931.7168 z " />
      <path
         style="fill:#e6e6e6;fill-opacity:1;stroke-width:3.77953"
         d="M 135.2667,452.7875 343.90709,830.93992 335.45017,393.53803 215.98735,341.18871 Z"
         id="path25"
         sodipodi:nodetypes="ccccc" />
    </g>
    <path
       id="path1-8"
       style="fill:#e6e6e6;fill-opacity:1;stroke-width:9.06328"
       d="m 383.54589,470.96286 -233.90355,60.97519 -53.482422,38.85352 68.787112,6.10937 226.23949,-58.53574 39.94531,-40.30664 z m -0.58495,98.24417 -184.91211,41.97852 -53.48242,38.85351 68.78711,6.10742 177.24804,-39.5371 39.94532,-40.30665 z m -3.19888,99.40229 -136.60018,34.42977 -53.48243,38.85547 68.78711,6.10742 128.93612,-31.99032 39.94531,-40.30664 z"
       sodipodi:nodetypes="ccccccccccccccccccccc" />
  </g>
</svg>
