<?xml version="1.0" encoding="UTF-8" standalone="no"?>
<!-- Created with Inkscape (http://www.inkscape.org/) -->

<svg
   version="1.1"
   id="svg1"
   width="1512"
   height="1512"
   viewBox="0 0 1512 1512"
   sodipodi:docname="Ally1Attack.svg"
   inkscape:version="1.3.2 (091e20e, 2023-11-25)"
   inkscape:export-filename="../../Utopia/Assets/Sprites/Tetra.png"
   inkscape:export-xdpi="96"
   inkscape:export-ydpi="96"
   xmlns:inkscape="http://www.inkscape.org/namespaces/inkscape"
   xmlns:sodipodi="http://sodipodi.sourceforge.net/DTD/sodipodi-0.dtd"
   xmlns="http://www.w3.org/2000/svg"
   xmlns:svg="http://www.w3.org/2000/svg">
  <defs
     id="defs1" />
  <sodipodi:namedview
     id="namedview1"
     pagecolor="#505050"
     bordercolor="#eeeeee"
     borderopacity="1"
     inkscape:showpageshadow="0"
     inkscape:pageopacity="0"
     inkscape:pagecheckerboard="0"
     inkscape:deskcolor="#505050"
     inkscape:zoom="0.39345596"
     inkscape:cx="784.07758"
     inkscape:cy="869.22053"
     inkscape:window-width="1512"
     inkscape:window-height="917"
     inkscape:window-x="0"
     inkscape:window-y="65"
     inkscape:window-maximized="0"
     inkscape:current-layer="layer1"
     showguides="false"
     showgrid="false">
    <sodipodi:guide
       position="720.38788,1357.177"
       orientation="0,-1"
       id="guide37"
       inkscape:locked="false" />
  </sodipodi:namedview>
  <g
     inkscape:groupmode="layer"
     id="layer1"
     inkscape:label="Layer1"
     style="display:inline">
    <path
       style="display:inline;fill:#ff00b2;fill-opacity:1;stroke-width:3.42516"
       d="m 689.4396,300.3658 c 3.3586,13.171 9.7128,63.0469 19.1549,81.4533 l 2.6058,-51.0602 c 0.07,15.2977 3.2465,37.248 8.5479,52.5457 l 5.2853,-48.9226 c 2.7804,14.6091 7.3796,36.1977 12.758,52.5457 2.4249,-13.3041 3.3765,-33.1174 4.0824,-44.6956 0.8813,11.7448 3.6098,30.272 7.9464,42.884 3.5819,-12.2783 8.3498,-36.1459 8.509,-48.4243 l 8.9377,52.8659 c 21.0173,-72.7381 19.8134,-81.3224 23.3237,-98.0493 l -45.7096,-70.0471 c -18.3491,34.1845 -37.6287,33.9938 -55.4415,78.9045 z"
       id="path5"
       inkscape:label="path5"
       sodipodi:nodetypes="ccccccccccccc" />
    <path
       id="path1"
       style="display:inline;fill:#ffe6d5;fill-opacity:1;stroke-width:3.42516"
       d="m 747.4884,186.3055 c -39.5858,1.7421 -46.0315,10.7736 -45.3412,68.3201 1.696,18.7802 2.2183,41.7173 11.5407,55.3556 1.7608,18.0212 -4.6109,35.9119 -5.0683,48.901 -57.84104,16.05344 -57.02273,15.22082 -47.9011,121.8496 11.3027,49.6432 15.2739,37.6442 29.5158,182.6469 -26.0777,164.3754 -52.4692,331.9992 -64.2374,496.3746 l -19.2244,309.0014 c -0.5617,22.5299 -17.8305,29.1183 -10.9528,43.3961 l 49.8852,-0.5148 c 4.1906,-15.5124 -7.7207,-25.1093 -6.9435,-41.3632 l 55.246,-300.5344 c 25.5832,-129.7607 51.678,-259.522 63.2817,-389.2827 2.4814,119.7883 18.3148,247.6206 34.8964,375.903 l 46.6293,299.1209 c 1.9455,18.851 -13.7776,32.7846 -6.425,56.5029 l 135.3347,0.111 c 4.4143,-4.0502 7.0621,-6.2821 7.0618,-10.3323 -51.5444,-5.2481 -71.1874,-15.4471 -99.7538,-54.6211 L 865.635,1162.0672 C 855.0777,998.6436 829.3824,831.1856 798.7762,662.0107 c 4.6777,-154.1751 12.9975,-130.8922 19.2014,-186.0059 11.9469,55.0575 15.6257,91.3857 54.3699,233.1804 5.8037,67.0064 26.4688,157.8852 45.1861,245.6361 l -4.3939,42.7233 c 2.1738,6.3159 3.9739,8.4505 7.2961,11.3325 2.5175,6.0761 10.2263,8.5936 13.3141,8.7978 2.9342,-0.3326 5.1146,0.1418 9.0773,-2.9618 3.3212,-1.1801 5.9024,-2.0121 7.9818,-4.1351 2.7083,-0.6304 4.7071,-2.2305 5.9,-4.3249 2.1049,-1.0662 3.4294,-2.6339 3.9456,-4.8443 L 946.7438,957.1825 C 936.265,853.18 925.7865,761.9764 915.3078,697.7305 884.2482,463.8418 862.3374,407.6223 857.1647,397.451 c -19.7327,-38.8016 -69.244,-43.5361 -95.4365,-39.9894 -1.1085,-8.0055 -4.406,-13.4123 -2.4439,-24.5007 29.3807,-25.8358 31.667,-55.1957 32.2554,-93.2763 -3.2245,-23.9211 -6.8006,-53.1834 -44.0513,-53.3791 z"
       sodipodi:nodetypes="cccccccccccccccccccccccccccccccccscccc" />
    <path
       style="display:inline;fill:#333333;stroke-width:3.42516"
       d="m 708.7108,357.841 c 5.8859,16.0222 25.3307,16.869 41.4271,21.2221 16.7578,-9.4332 12.4833,-16.0961 11.4427,-23.7081 3.2945,-0.2945 15.669,0.034 19.3296,0.2035 31.3874,48.9532 32.3568,93.1808 37.4811,121.2 -10.4551,66.7161 -22.1334,134.496 -16.3364,202.2356 36.0677,143.3605 61.3852,425.3001 64.0583,450.6783 2.8589,54.4687 11.4161,229.2955 11.5169,319.112 -10.7211,1.1028 -13.8781,4.0732 -40.0557,1.1714 -13.0202,-94.4958 -51.4619,-263.155 -52.2104,-311.6018 -10.6398,-84.3454 -31.1012,-266.4115 -28.4053,-341.2916 -23.265,213.3054 -73.4671,437.4172 -111.6398,655.4492 -12.3468,-0.8588 -21.2295,3.4669 -38.2721,-0.8861 2.0572,-328.8018 50.6037,-550.058 79.3052,-780.7917 3.1885,-61.1841 -17.2724,-151.3966 -26.3897,-191.5519 16.5136,-118.9181 18.9166,-99.8439 32.7917,-120.986 2.6759,-0.2218 12.8174,-0.3109 15.9568,-0.4549 z"
       id="path6"
       inkscape:label="path6"
       sodipodi:nodetypes="ccccccccccccccccc" />
    <path
       style="display:inline;fill:#333333;fill-opacity:0.1;stroke-width:3.42516"
       d="m 713.6375,309.9094 c 12.274,13.8657 30.8918,29.637 36.9395,28.2829 3.3121,-0.7471 7.1838,-3.6125 8.6688,-5.1646 -0.1962,1.7489 -0.4814,3.2755 -0.5887,5.247 -1.1939,2.0269 -6.4162,5.7687 -8.6132,5.8615 -12.8661,-3.4028 -29.6776,-16.1584 -36.0432,-26.2913 0.092,-3.6358 0.016,-5.4168 -0.3632,-7.9355 z"
       id="path15"
       sodipodi:nodetypes="ccccccc" />
    <path
       style="display:inline;fill:#ffffff;stroke-width:1.90472"
       d="m 739.6392,314.1439 c -0.4064,0.063 0.4426,-1.2687 2.9873,-1.2056 13.861,-0.1234 14.3595,-0.044 17.624,-0.1198 0.942,0.1889 0.5131,1.0435 0.2302,1.1411 -11.2243,0.1545 -16.7699,-0.058 -20.8414,0.1843 z"
       id="path14"
       sodipodi:nodetypes="cccccc" />
    <path
       style="display:inline;fill:#e6e6e6;fill-opacity:1;stroke-width:3.77953"
       d="m 598.0612,1421.3901 7.7503,18.8733 22.0561,-18.5272 17.2037,18.086 14.5571,-20.2916 8.8224,-74.5496 -37.5745,39.5801 -29.3148,-37.2464 z"
       id="path22"
       sodipodi:nodetypes="ccccccccc" />
    <path
       style="display:inline;fill:#e6e6e6;fill-opacity:1;stroke-width:3.77953"
       d="m 601.1511,1339.9656 29.8238,35.3363 38.5634,-38.7643 21.0939,-100.6372 -33.5472,-107.5103 -55.7231,111.8387 z"
       id="path23"
       sodipodi:nodetypes="ccccccc" />
    <path
       style="display:inline;fill:#e6e6e6;fill-opacity:1;stroke-width:3.77953"
       d="m 683.8816,619.8555 54.4563,31.4225 20.9834,33.8884 c 8.1529,3.0204 9.2635,2.8323 16.6368,-0.5367 l 11.6438,-33.3619 12.7374,-15.3122 2.0227,42.43 -27.7713,38.9277 -62.6732,-38.8317 -26.4259,-26.4258 z"
       id="path33"
       sodipodi:nodetypes="ccccccccccc" />
    <path
       style="display:inline;fill:#ff00b2;fill-opacity:1;stroke-width:3.77953"
       d="m 685.4559,651.462 c 52.2756,62.4745 114.8761,45.2302 116.649,16.1094 69.3422,253.1273 -64.1336,444.0718 -230.19,691.6644 52.0379,-329.3702 -6.0859,-213.2128 113.541,-707.7738 z"
       id="path19"
       sodipodi:nodetypes="cccc" />
    <path
       id="path28"
       style="display:inline;fill:#e6e6e6;fill-opacity:1;stroke-width:3.77953"
       d="m 761.5363,355.0469 19.5068,37.7852 -23.5572,40.6164 -50.408,-38.8732 1.7435,-36.8312 -27.3476,38.7559 77.9785,62.7246 40.127,-68.3496 z"
       sodipodi:nodetypes="ccccccccc" />
    <path
       style="display:inline;fill:#ffffff;stroke-width:4.14303"
       d="m 738.1048,263.3922 c -5.0652,-6.7019 -8.2266,-7.7622 -15.8209,-8.9864 -7.0933,0.4939 -12.1246,0.1863 -18.4052,2.9696 3.1916,5.4129 0.4356,14.0748 14.3896,14.6981 8.7565,-0.099 1.6426,0.1107 10.5242,-0.4412 3.5757,-2.2659 7.3775,-6.3607 9.3123,-8.2401 z"
       id="path8"
       sodipodi:nodetypes="cccccc" />
    <path
       style="display:inline;fill:#ff00b2;fill-opacity:1;stroke-width:4.23239"
       d="m 733.1458,258.1274 c -4.852,-4.3986 -16.6476,-4.0632 -22.9486,-2.5435 -0.5134,8.2494 4.3108,14.3128 11.0169,16.4785 1.5505,-0.095 4.3747,-0.01 5.9182,-0.281 4.8474,-0.999 11.4847,-9.2593 6.0135,-13.654 z"
       id="path9"
       sodipodi:nodetypes="ccccc" />
    <path
       style="display:inline;fill:#ff00b2;fill-opacity:1;stroke-width:4.14303"
       d="m 703.2687,257.5861 c 12.5019,-3.3093 24.2683,-5.1548 34.6265,3.8563 -10.4174,-12.1955 -25.8164,-8.2141 -34.6265,-3.8563 z"
       id="path10"
       sodipodi:nodetypes="ccc" />
    <path
       style="display:inline;fill:#ff00b2;fill-opacity:1;stroke-width:3.06566"
       d="m 763.0809,251.8921 c 9.8283,-4.3187 16.8565,-4.124 25.3577,1.4624 -8.2603,-8.1385 -15.7531,-8.0726 -25.3577,-1.4624 z"
       id="path10-8-6"
       sodipodi:nodetypes="ccc" />
    <path
       style="display:inline;fill:#ff00b2;fill-opacity:1;stroke-width:3.01349"
       d="m 733.8612,251.9262 c -9.4475,-4.4617 -19.9203,-4.2203 -28.198,1.2408 8.074,-8.0164 18.9926,-7.9904 28.198,-1.2408 z"
       id="path10-8-6-6"
       sodipodi:nodetypes="ccc" />
    <path
       style="display:inline;fill:#ffffff;stroke-width:3.94212"
       d="m 758.4456,263.4763 c 4.5858,-6.7019 6.9244,-8.1478 13.8,-9.372 6.4221,0.4939 10.9772,0.1863 16.6634,2.9697 -2.8896,5.4128 0.014,13.7152 -12.6191,14.3386 -7.9278,-0.099 -1.4872,0.1107 -9.5282,-0.4412 -3.2373,-2.2659 -6.5645,-5.6157 -8.3161,-7.4951 z"
       id="path8-9"
       sodipodi:nodetypes="cccccc" />
    <path
       style="display:inline;fill:#ff00b2;fill-opacity:1;stroke-width:3.92566"
       d="m 789.2019,257.1544 c -11.2245,-3.3092 -21.5648,-4.9078 -30.8646,4.1033 9.353,-12.1954 22.9547,-8.461 30.8646,-4.1033 z"
       id="path10-5"
       sodipodi:nodetypes="ccc" />
    <path
       style="display:inline;fill:#ff00b2;fill-opacity:1;stroke-width:4.13743"
       d="m 765.4008,256.292 c 9.2359,-3.8758 15.9915,-1.2231 22.013,0.2966 0.4906,8.2494 -4.1196,12.7375 -10.5282,14.9031 -1.4816,-0.095 -4.1805,-0.01 -5.6555,-0.281 -4.6323,-0.999 -11.0577,-10.5241 -5.8293,-14.9187 z"
       id="path9-5"
       sodipodi:nodetypes="ccccc" />
    <path
       style="display:inline;fill:#e6e6e6;fill-opacity:1;stroke-width:3.77953"
       d="m 723.9162,539.058 10.9666,81.798 32.8941,54.1032 21.1518,-59.4781 6.3861,-83.2357 -34.4752,-35.406 z"
       id="path47"
       sodipodi:nodetypes="ccccccc"
       inkscape:label="path47" />
    <path
       style="display:inline;fill:#e6e6e6;fill-opacity:1;stroke-width:3.77953"
       d="m 680.8868,403.9034 80.6219,69.7545 41.0956,-74.2257 c 8.1619,20.5706 11.3727,39.8776 15.7912,77.3298 -11.9002,72.0666 -32.8263,57.0846 -50.8988,73.9465 -12.9354,-10.5179 -83.7749,-2.7751 -107.0954,-68.8814 6.9553,-34.8991 13.5302,-57.1523 20.4855,-77.9237 z"
       id="path29"
       sodipodi:nodetypes="ccccccc" />
    <path
       id="path4"
       style="display:inline;fill:#ff00b2;fill-opacity:1;stroke-width:3.42516"
       inkscape:label="path4"
       d="m 743.4911,159 c -45.9066,0 -65.2308,12.9123 -69.6488,67.1231 -5.4856,58.1671 8.4107,115.6229 26.5845,170.5956 1.8954,-53.3381 7.3399,-95.699 1.958,-142.4841 5.8769,-7.1566 4.5085,-12.0255 8.1782,-13.5351 1.2821,1.4827 6.1364,15.4812 6.562,16.9639 l 5.3598,-20.8327 c 2.0157,3.2355 2.6505,19.6339 3.119,22.2035 l 3.2739,-21.2724 c 2.9516,4.1525 2.4077,20.3007 3.5813,23.178 l 4.5673,-24.4124 c 3.8653,24.8233 2.2681,41.1716 3.3139,61.6201 1.964,-10.302 5.2969,-19.6349 8.1911,-30.4449 1.8794,-7.0194 3.5738,-14.6616 4.5884,-23.5965 -0.3447,3.7201 2.6396,18.16 3.1754,21.5643 l 3.7422,-15.1262 2.979,-12.0411 c 1.8479,4.0625 2.7722,15.615 3.3651,18.1653 l 4.1626,-19.9892 c 2.0859,3.2727 2.1118,19.2138 2.9969,22.3142 l 7.3143,-16.8081 c 4.6637,3.3592 3.3134,7.8217 9.9782,12.7131 -4.8693,32.1185 -6.1629,56.027 -4.108,87.4197 1.2221,18.6718 1.0496,37.3014 2.113,55.4548 20.0227,-69.8813 26.721,-127.5967 23.0894,-180.0788 C 806.6269,175.0518 785.0394,159.4873 743.4911,159 Z"
       sodipodi:nodetypes="scccccccccccscccccccccsccss" />
    <path
       style="display:inline;fill:#333333;stroke-width:4.32916"
       d="m 586.4402,1070.4636 9.5009,66.7267 42.1548,-65.7833 8.8145,-48.2627 z"
       id="path11"
       sodipodi:nodetypes="ccccc" />
    <path
       style="display:inline;fill:#e6e6e6;fill-opacity:1;stroke-width:3.77953"
       d="m 680.6898,741.0476 -21.9028,273.8376 -90.5057,67.6564 81.8493,-387.3329 z"
       id="path18"
       sodipodi:nodetypes="ccccc" />
    <path
       style="display:inline;fill:#333333;fill-opacity:0.1;stroke-width:3.77953"
       d="m 724.4405,543.539 c 15.1835,4.0038 32.0041,5.0422 43.5125,12.387 6.2193,-9.0937 17.7619,-10.7772 26.9838,-16.8682 l 0.1829,-3.9578 c -4.5195,3.9983 -20.5072,9.143 -27.661,16.1263 -6.3536,-5.165 -22.7105,-5.448 -43.59,-11.5856 z"
       id="path48"
       sodipodi:nodetypes="ccccccc" />
    <path
       style="display:inline;fill:#333333;fill-opacity:1;stroke-width:3.77953"
       d="m 688.3796,237.9183 -11.5065,0.356 5.524,14.7442 9.1623,16.904 3.7648,-19.5689 z"
       id="path24"
       sodipodi:nodetypes="cccccc" />
    <path
       style="display:inline;fill:#e6e6e6;fill-opacity:1;stroke-width:3.77953"
       d="m 675.6848,166.3842 17.9495,31.5345 1.5564,53.2087 -19.999,-14.1342 z"
       id="path17"
       sodipodi:nodetypes="ccccc" />
    <path
       style="display:inline;fill:#333333;fill-opacity:1;stroke-width:3.18766"
       d="m 806.9556,238.2245 8.1849,0.356 -1.2577,14.0608 -7.3871,17.5341 -2.239,-20.6407 z"
       id="path24-7"
       sodipodi:nodetypes="cccccc" />
    <path
       style="display:inline;fill:#e6e6e6;fill-opacity:1;stroke-width:3.18766"
       d="m 816.1722,160.4828 -13.2915,26.4097 c 1.8195,2.8737 1.1452,3.1377 0.3372,7.126 l 1.0034,55.5598 12.1153,-12.2789 z"
       id="path17-5"
       sodipodi:nodetypes="cccccc" />
    <path
       style="display:inline;fill:#333333;fill-opacity:0.1;stroke-width:6.51894"
       d="m 753.2687,272 1.6155,11.2967 -1.0116,8.8922 2.2823,-8.6167 z"
       id="path32"
       sodipodi:nodetypes="ccccc" />
    <path
       style="display:inline;fill:#333333;stroke-width:5.70432"
       d="m 659.5443,1007.618 -14.7179,-13.048 18.0748,-4.099 24.0107,6.7773 z"
       id="path2-5" />
    <path
       style="display:inline;fill:#333333;stroke-width:5.70432"
       d="m 664.7757,950.0043 -14.7179,-13.048 18.0748,-4.0991 24.0108,6.7773 z"
       id="path2-6-5" />
    <path
       style="display:inline;fill:#333333;stroke-width:5.70432"
       d="m 667.8847,899.4777 -14.718,-13.048 18.0749,-4.0991 24.0107,6.7774 z"
       id="path2-6-1-5" />
    <path
       style="display:inline;fill:#333333;stroke-width:5.70432"
       d="m 672.5605,844.6487 -14.7179,-13.048 18.0748,-4.099 24.0107,6.7773 z"
       id="path2-6-1-7-8" />
    <path
       style="display:inline;fill:#333333;stroke-width:5.70432"
       d="m 677.7067,790.8159 -14.7179,-13.048 18.0748,-4.099 24.0107,6.7773 z"
       id="path2-6-1-7-4-2" />
    <path
       style="display:inline;fill:#e6e6e6;fill-opacity:1;stroke-width:3.77953"
       d="m 735.6005,600.9253 -24.4721,-10.9506 -28.6823,7.8984 30.7972,16.0436 27.7954,25.9827 13.5956,-16.0126 z"
       id="path12"
       sodipodi:nodetypes="ccccccc" />
    <path
       style="display:inline;fill:#e6e6e6;fill-opacity:1;stroke-width:3.77953"
       d="m 784.6237,640.0084 -9.4802,-15.689 11.3143,-23.6561 16.4379,-9.8224 -2.0364,27.3055 z"
       id="path25"
       sodipodi:nodetypes="cccccc" />
    <path
       style="display:inline;fill:#333333;fill-opacity:0.1;stroke-width:3.77953"
       d="m 786.3938,600.6739 -2.1436,1.5416 -10.4504,22.3 7.506,12.6912 0.5364,-1.7458 -6.75,-11.0622 z"
       id="path35"
       sodipodi:nodetypes="ccccccc" />
    <path
       style="display:inline;fill:#e5e5e5;fill-opacity:1;stroke-width:3.77953"
       d="m 708.7721,357.6536 -0.01,-1.9883 4.7847,7.3192 5.4947,-3.9432 3.2155,10.4342 6.7256,-5.772 4.5968,9.9346 5.8277,-15.0513 9.3243,18.5479 4.2119,-18.6491 4.1134,13.1545 1.998,-8.0844 2.6641,3.0892 -0.6223,-5.7836 1.5101,3.5467 -1.1771,-8.6562 c 13.8599,41.0849 -48.1778,21.9302 -52.6594,1.9018 z"
       id="path38"
       sodipodi:nodetypes="cccccccccccccccccc" />
    <path
       d="m 579.53738,426.01659 c 53.05329,-6.79806 124.56961,-21.0623 315.87017,-16.02883 65.7526,-3.10728 155.03775,0.89159 249.80175,6.54461 l 43.9836,-2.06533 c 2.5488,-0.3217 3.9651,2.30132 5.2569,4.5623 3.3639,1.01329 3.6946,4.1735 4.286,6.31455 3.7975,3.8018 2.0021,6.23429 3.1573,8.27327 2.2008,3.35077 2.2248,5.60174 2.4074,9.70089 -2.2644,4.65918 -7.2843,9.49327 -11.6467,12.41297 -5.7899,3.55802 -7.8828,1.78903 -14.5544,0.78017 l -36.0757,-12.97663 c -91.5354,10.33877 -172.74405,16.41643 -238.59715,16.15939 -85.077,13.81037 -167.42779,19.17481 -248.11119,19.37542"
       style="display:inline;fill:#ffe6d5;fill-opacity:1;stroke-width:3.42516"
       id="path1-6" />
    <path
       style="display:inline;fill:#e6e6e6;fill-opacity:1;stroke-width:3.77953"
       d="m 1150.399,414.4126 -1.7693,2.86837 -27.6039,6.20792 26.7804,10.5398 2.3918,2.22471 -22.0354,12.85502 -71.1576,9.76792 -2.6161,-1.97344 -2.2359,-4.83578 9.0237,-0.42753 29.5325,-25.81291 -31.5337,-15.01417 3.4256,-0.91133 72.2101,1.33275 z"
       id="path36-4"
       sodipodi:nodetypes="ccccccccccccccc" />
    <path
       style="display:inline;fill:#e6e6e6;fill-opacity:1;stroke-width:3.77953"
       d="m 1077.7901,425.25539 -31.3959,32.47906 -86.73157,5.42352 -12.63117,-1.32237 -9.12111,-3.32659 8.7358,-0.17791 -74.48621,-27.62296 80.83091,-25.62493 81.92125,-0.63037 16.7993,3.62403 z"
       id="path37-8"
       sodipodi:nodetypes="ccccccccccc" />
    <path
       style="display:inline;fill:#ff00b2;fill-opacity:1;stroke-width:3.77953"
       d="m 693.1843,356.938 c -70.2901,-5.0155 -151.7626,75.8909 -169.0759,326.4103 36.7897,-51.1804 99.4104,-59.7454 136.2,-200.7776 z"
       id="path20"
       sodipodi:nodetypes="cccc" />
    <path
       style="display:inline;fill:#333333;stroke-width:3.42831"
       d="m 533.9404,515.0744 4.8322,56.7142 29.9859,-33.4031 15.9669,-34.0092 z"
       id="path7"
       sodipodi:nodetypes="ccccc" />
    <path
       style="display:inline;fill:#e6e6e6;fill-opacity:1;stroke-width:3.42831"
       d="M 654.2798,363.7184 584.4286,504.9706 520,519.0338 645.1177,319.4476 Z"
       id="path21"
       sodipodi:nodetypes="ccccc" />
    <path
       style="display:inline;fill:#333333;stroke-width:3.77953"
       d="m 589.5117,494.5104 -6.8026,-11.1064 12.217,0.833 13.8829,8.8851 z"
       id="path2" />
    <path
       style="display:inline;fill:#333333;stroke-width:3.77953"
       d="m 604.111,465.8067 -6.8026,-11.1064 12.217,0.833 13.8829,8.8851 z"
       id="path2-6" />
    <path
       style="display:inline;fill:#333333;stroke-width:3.77953"
       d="m 617.1906,438.1472 -6.8026,-11.1063 12.217,0.8329 13.8829,8.8851 z"
       id="path2-6-1" />
    <path
       style="display:inline;fill:#333333;stroke-width:3.77953"
       d="m 630.6152,412.2707 -6.8027,-11.1064 12.217,0.833 13.8829,8.8851 z"
       id="path2-6-1-7" />
    <path
       style="display:inline;fill:#333333;stroke-width:3.77953"
       d="m 643.2563,387.0837 -6.8026,-11.1064 12.217,0.833 13.8829,8.8851 z"
       id="path2-6-1-7-4" />
    <g
       id="g1"
       transform="translate(-64.403789,46.002707)"
       inkscape:label="Cannon">
      <path
         style="display:inline;fill:#333333;fill-opacity:1;stroke-width:3.77953"
         d="m 1366.9695,507.80138 23.8799,12.54779 17.7529,-21.99301 5.5448,-42.46113 -38.8296,-29.08128 23.9757,31.50247 -11.2711,37.73929 z"
         id="path39-5"
         sodipodi:nodetypes="cccccccc" />
      <path
         style="display:inline;fill:#333333;fill-opacity:1;stroke-width:3.77953"
         d="m 1267.6079,519.85703 23.8797,12.54778 17.753,-21.99302 5.5447,-42.46113 -38.8296,-29.08127 23.9758,31.50246 -11.2711,37.73929 z"
         id="path39-5-8"
         sodipodi:nodetypes="cccccccc" />
      <path
         style="display:inline;fill:#333333;fill-opacity:1;stroke-width:3.77953"
         d="m 1175.446,527.29133 23.8797,12.54777 17.7529,-21.99301 5.5448,-42.46113 -38.8296,-29.08128 23.9758,31.50247 -11.2711,37.73929 z"
         id="path39-5-8-1"
         sodipodi:nodetypes="cccccccc" />
      <path
         style="display:inline;fill:#333333;fill-opacity:1;stroke-width:5.91856"
         d="m 908.7513,590.27972 -145.13886,-3.73341 c -17.46527,-30.53682 -16.27389,-49.6746 -0.77838,-78.57424 l 398.21674,-4.07354 306.2185,-24.40232 55.4222,27.63768 3.0609,98.02989 -57.211,26.74291 -311.9601,-32.74297 z"
         id="path3"
         sodipodi:nodetypes="cccccccccc" />
      <path
         style="display:inline;fill:#ff00b2;fill-opacity:1;stroke-width:5.91856"
         d="m 754.16367,527.76476 391.00313,-0.97277 53.1957,25.99402 186.2104,2.60826 40.4203,-72.60919 11.5635,-0.64133 -48.739,87.06073 -190.0469,-3.10538 -53.6033,-27.63562 -391.92225,-3.34694 c 0.41893,-1.67484 1.08516,-5.26896 1.91842,-7.35178 z"
         id="path13"
         sodipodi:nodetypes="ccccccccccc" />
      <path
         style="display:inline;fill:#e6e6e6;fill-opacity:1;stroke-width:5.91856"
         d="m 1407.1122,483.3607 -33.4707,57.96428 -176.7971,-2.13842 -65.7651,-34.87303 c 80.3353,-11.01493 173.8481,-27.85355 276.0329,-20.95283 z"
         id="path16"
         sodipodi:nodetypes="ccccc" />
      <path
         style="display:inline;fill:#333333;fill-opacity:1;stroke-width:3.77953"
         d="m 1294.0722,496.0432 -13.6863,23.2459 -26.6762,-9.34041 -27.0829,-33.16935 17.6827,-45.17496 -3.7819,39.40733 29.4625,26.1391 z"
         id="path39-7"
         sodipodi:nodetypes="cccccccc" />
      <path
         style="display:inline;fill:#333333;fill-opacity:1;stroke-width:3.77953"
         d="m 1199.4832,504.76273 -13.6863,23.2459 -26.6761,-9.3404 -27.0829,-33.16936 17.6827,-45.17496 -3.7819,39.40733 29.4625,26.13911 z"
         id="path39-7-3"
         sodipodi:nodetypes="cccccccc" />
      <path
         style="display:inline;fill:#333333;fill-opacity:1;stroke-width:3.77953"
         d="m 1385.5583,491.9418 -13.6863,23.24591 -26.6762,-9.34042 -27.0829,-33.16935 17.6827,-45.17497 -3.7819,39.40733 29.4625,26.13911 z"
         id="path39"
         sodipodi:nodetypes="cccccccc" />
    </g>
  </g>
</svg>
