<?xml version="1.0" encoding="UTF-8" standalone="no"?>
<!-- Created with Inkscape (http://www.inkscape.org/) -->

<svg
   version="1.1"
   id="svg1"
   width="1512"
   height="1512"
   viewBox="0 0 1512 1512"
   sodipodi:docname="Ally2Attack.svg"
   inkscape:version="1.3.2 (091e20e, 2023-11-25)"
   inkscape:export-filename="../../Utopia/Assets/Sprites/Tetra.png"
   inkscape:export-xdpi="96"
   inkscape:export-ydpi="96"
   xmlns:inkscape="http://www.inkscape.org/namespaces/inkscape"
   xmlns:sodipodi="http://sodipodi.sourceforge.net/DTD/sodipodi-0.dtd"
   xmlns="http://www.w3.org/2000/svg"
   xmlns:svg="http://www.w3.org/2000/svg">
  <defs
     id="defs1" />
  <sodipodi:namedview
     id="namedview1"
     pagecolor="#505050"
     bordercolor="#eeeeee"
     borderopacity="1"
     inkscape:showpageshadow="0"
     inkscape:pageopacity="0"
     inkscape:pagecheckerboard="0"
     inkscape:deskcolor="#505050"
     inkscape:zoom="0.47076283"
     inkscape:cx="651.07095"
     inkscape:cy="879.42373"
     inkscape:window-width="1512"
     inkscape:window-height="945"
     inkscape:window-x="0"
     inkscape:window-y="37"
     inkscape:window-maximized="0"
     inkscape:current-layer="layer1"
     showguides="false"
     showgrid="false" />
  <g
     inkscape:groupmode="layer"
     id="layer1"
     inkscape:label="Layer1"
     style="display:inline">
    <path
       style="display:inline;fill:#3b02b7;stroke-width:3.77953"
       d="M 686.82829,368.68705 C 533.177,355.73666 448.01874,459.43028 381.36152,583.1083 503.12212,577.00974 616.88256,554.76368 704.66799,469.77866 566.12114,596.47101 531.64488,775.81917 505.45805,954.42373 637.32545,862.21797 720.42514,751.57563 749.26723,594.65653 769.01077,721.27419 789.53299,847.34276 983.56512,960.55839 946.39425,809.36762 866.30426,592.25056 782.58739,461.20942 c 91.16854,104.91 208.60236,97.01753 340.55001,104.28963 C 1028.1739,432.25944 955.76118,358.70276 787.20693,362.06847 l -39.71074,54.50493 z"
       id="path3"
       sodipodi:nodetypes="ccccccccccc" />
    <path
       style="display:inline;fill:#e6e6e6;stroke-width:3.77953"
       d="M 634.19879,415.70547 514.58644,439.13638 437.26089,552.44802 568.46002,515.28084 Z"
       id="path4"
       sodipodi:nodetypes="ccccc" />
    <path
       style="display:inline;fill:#e6e6e6;stroke-width:3.77953"
       d="m 851.94546,415.1487 121.09032,13.9014 86.04152,106.84387 -133.72675,-26.67866 z"
       id="path4-2"
       sodipodi:nodetypes="ccccc" />
    <path
       style="display:inline;fill:#e6e6e6;stroke-width:3.77953"
       d="m 810.98755,686.65461 98.80926,71.36418 22.77168,135.27825 -103.57934,-88.68999 z"
       id="path4-2-7"
       sodipodi:nodetypes="ccccc" />
    <path
       style="display:inline;fill:#e6e6e6;stroke-width:3.77953"
       d="m 652.76657,693.72491 -98.80926,71.36418 -22.77168,135.27825 103.57934,-88.68999 z"
       id="path4-2-7-3"
       sodipodi:nodetypes="ccccc" />
    <path
       style="display:inline;fill:#333333;fill-opacity:1;stroke-width:3.77953"
       d="m 522.9743,452.42991 c -13.06536,8.71434 -23.07465,31.97914 -14.1877,44.92771 9.60793,13.99904 37.00329,12.99414 50.83925,3.15282 12.33724,-8.7753 20.82798,-31.2928 12.21718,-43.7454 -9.30113,-13.45093 -35.26373,-13.4094 -48.86873,-4.33513 z"
       id="path7"
       sodipodi:nodetypes="sssss" />
    <path
       style="display:inline;fill:#333333;fill-opacity:1;stroke-width:3.77953"
       d="m 968.47854,441.67411 c 13.06536,8.71434 23.07465,31.97914 14.1877,44.92771 -9.60793,13.99904 -37.00329,12.99414 -50.83925,3.15282 -12.33724,-8.7753 -20.82798,-31.2928 -12.21718,-43.7454 9.30113,-13.45093 35.26373,-13.4094 48.86873,-4.33513 z"
       id="path7-6"
       sodipodi:nodetypes="sssss" />
    <path
       style="display:inline;fill:#333333;fill-opacity:1;stroke-width:3.77953"
       d="m 896.79098,770.66295 c 7.85739,13.59797 6.53291,38.8899 -7.16809,46.56617 -14.81257,8.299 -38.93221,-4.73014 -46.98166,-19.67978 -7.17753,-13.33028 -4.82228,-37.27988 8.41158,-44.63367 14.29481,-7.94335 37.55624,3.58767 45.73817,17.74728 z"
       id="path7-6-2"
       sodipodi:nodetypes="sssss" />
    <path
       style="display:inline;fill:#333333;fill-opacity:1;stroke-width:3.77953"
       d="m 564.9319,773.04707 c -7.85739,13.59797 -6.53291,38.8899 7.16809,46.56617 14.81257,8.299 38.93221,-4.73014 46.98166,-19.67978 7.17753,-13.33028 4.82228,-37.27988 -8.41158,-44.63367 -14.29481,-7.94335 -37.55624,3.58767 -45.73817,17.74728 z"
       id="path7-6-2-9"
       sodipodi:nodetypes="sssss" />
    <path
       style="display:inline;fill:#e6e6e6;fill-opacity:1;stroke-width:3.77953"
       d="m 562.40846,1419.7331 c 174.98517,46.3266 224.61834,31.5849 351.28641,-15.3769 l -132.37784,-751.10034 -74.82226,1.43889 z"
       id="path18"
       sodipodi:nodetypes="ccccc" />
    <path
       id="path16"
       style="display:inline;fill:#3b02b7;fill-opacity:1;stroke-width:3.77953"
       d="m 721.21484,160.29883 c -28.29412,122.19708 -46.08879,210.26838 -6.80273,327.27734 v -60.91406 l 20.10742,83.97851 v -78.65624 l 13.60352,55.59179 4.73047,-59.73242 7.09765,41.99023 c 76.83966,-104.72858 18.81086,-194.41864 7.55816,-309.36797 -0.18561,-1.89601 -1.07683,-3.5351 -2.00328,-5.13465 2.54206,0.91953 2.22379,1.63427 5.71642,5.2294 -5.29014,-10.67794 -5.37486,-13.46216 -14.18908,-18.40498 4.87879,0.61219 3.86507,1.40703 6.33171,1.84346 -4.44746,-7.92636 -29.72162,-19.40529 -42.15026,16.29959 z"
       sodipodi:nodetypes="cccccccccccccc"
       inkscape:transform-center-y="163.04603" />
    <path
       id="path1"
       style="display:inline;fill:#ffe6d5;fill-opacity:1;stroke-width:3.42516"
       d="m 747.48841,186.30546 c -39.58579,1.7421 -46.03154,10.77367 -45.34119,68.32017 1.696,18.78021 2.21827,41.71727 11.54068,55.35555 1.76082,18.02125 -4.61087,35.91192 -5.06831,48.90098 -33.54464,0.3516 -35.28124,5.08622 -67.04043,11.19673 -42.9871,8.27077 -29.73994,43.60969 -196.46876,42.79821 -62.26757,-29.86766 -37.33024,31.4699 -25.68216,50.21843 66.00733,29.21791 182.48797,-5.84565 223.8548,-15.4317 7.35096,-1.70346 15.7333,35.65841 17.43544,33.06793 11.30269,49.6432 15.27392,37.6442 29.51578,182.6469 -26.07768,164.3754 -52.46913,331.9992 -64.23733,496.37464 l -19.22439,309.0014 c -0.56176,22.5299 -17.83059,29.1183 -10.95289,43.3961 l 49.88526,-0.5148 c 4.19062,-15.5124 -7.72076,-25.1093 -6.94354,-41.3632 l 55.24605,-300.5344 c 25.5832,-129.7607 51.67793,-259.52204 63.28168,-389.28274 2.48141,119.7883 18.31478,247.62064 34.89643,375.90304 l 46.62925,299.1209 c 1.94551,18.851 -13.7776,32.7846 -6.42494,56.5029 l 135.3347,0.111 c 4.4143,-4.0502 7.06205,-6.2821 7.06175,-10.3323 -51.54443,-5.2481 -71.18741,-15.4471 -99.75377,-54.6211 l -9.39757,-285.0729 c -10.5573,-163.42364 -36.25257,-330.88164 -66.85876,-500.05654 4.6777,-154.1751 12.99751,-130.8922 19.20143,-186.0059 11.94692,55.0575 15.62569,91.3857 54.36988,233.1804 12.03319,41.93101 46.50716,21.95183 42.96032,-11.4547 -31.05964,-233.8887 -52.97041,-290.1082 -58.14308,-300.2795 -19.73277,-38.8016 -69.24407,-43.5361 -95.43652,-39.9894 -1.10853,-8.0055 -4.40607,-13.41228 -2.44392,-24.50068 29.38066,-25.83578 31.66701,-55.19564 32.25543,-93.27633 -3.22449,-23.9211 -6.80058,-53.18339 -44.05132,-53.37909 z"
       sodipodi:nodetypes="ccccsccsccccccccccccccccccccscccc" />
    <path
       style="display:inline;fill:#333333;stroke-width:3.42516"
       d="m 708.71084,357.84095 c 5.88581,16.0223 25.33068,16.86905 41.42708,21.22215 16.75775,-9.4332 12.48325,-16.0961 11.44273,-23.7081 3.29448,-0.2945 15.66891,0.0341 19.3295,0.20346 31.38749,48.9532 32.35683,93.18084 37.48114,121.20004 -10.45508,66.71609 -22.13344,134.49602 -16.33635,202.23557 36.06767,143.3605 61.38519,425.30013 64.05828,450.67833 2.85889,54.4687 11.41611,229.2955 11.51687,319.112 -10.72109,1.1028 -13.87811,4.0732 -40.05568,1.1714 -13.02018,-94.4958 -51.46192,-263.155 -52.2104,-311.6018 -10.63986,-84.3454 -31.10118,-266.4115 -28.40528,-341.2916 -23.26505,213.3054 -73.4671,437.4172 -111.63982,655.4492 -12.34679,-0.8588 -21.22955,3.4669 -38.27212,-0.8861 2.05721,-328.8018 50.60369,-550.058 79.30517,-780.7917 3.18855,-61.1841 -17.27235,-151.39656 -26.38971,-191.55186 16.51365,-118.9181 18.91663,-99.84397 32.79172,-120.98607 2.67593,-0.2218 12.81742,-0.31082 15.95687,-0.45492 z"
       id="path6"
       inkscape:label="path6"
       sodipodi:nodetypes="ccccccccccccccccc" />
    <path
       style="display:inline;fill:#333333;fill-opacity:0.1;stroke-width:3.42516"
       d="m 713.63746,309.9094 c 12.27402,13.86573 30.8918,29.63704 36.93949,28.28286 3.31216,-0.74709 7.18386,-3.61244 8.66889,-5.16461 -0.19627,1.74894 -0.48148,3.27551 -0.58872,5.24703 -1.19395,2.0269 -6.41622,5.76867 -8.61319,5.8615 -12.8661,-3.40281 -29.67768,-16.15841 -36.04319,-26.29133 0.092,-3.63576 0.0164,-5.41673 -0.36328,-7.93545 z"
       id="path15"
       sodipodi:nodetypes="ccccccc" />
    <path
       style="display:inline;fill:#ffffff;stroke-width:1.90472"
       d="m 739.63917,314.14391 c -0.40642,0.0628 0.44258,-1.2687 2.9873,-1.20564 13.86099,-0.12335 14.35951,-0.0439 17.62407,-0.1198 0.94191,0.18891 0.51302,1.04351 0.23016,1.14109 -11.22433,0.1545 -16.76992,-0.0582 -20.84143,0.18435 z"
       id="path14"
       sodipodi:nodetypes="cccccc" />
    <path
       style="display:inline;fill:#ffffff;stroke-width:4.14303"
       d="m 738.10478,263.39223 c -5.06514,-6.7019 -8.22655,-7.7622 -15.82085,-8.9864 -7.09337,0.4939 -12.12463,0.1863 -18.40528,2.9696 3.19166,5.4129 0.43566,14.0748 14.38963,14.6981 8.7565,-0.099 1.64266,0.1107 10.52422,-0.4412 3.57573,-2.2659 7.37751,-6.3607 9.31228,-8.2401 z"
       id="path8"
       sodipodi:nodetypes="cccccc" />
    <path
       style="display:inline;fill:#3b02b7;fill-opacity:1;stroke-width:4.23239"
       d="m 733.14579,258.12743 c -4.85199,-4.3986 -16.6476,-4.0632 -22.94862,-2.5435 -0.51342,8.2494 4.31083,14.3128 11.01697,16.4785 1.55046,-0.095 4.37469,-0.01 5.91813,-0.281 4.84743,-0.999 11.48474,-9.2593 6.01352,-13.654 z"
       id="path9"
       sodipodi:nodetypes="ccccc" />
    <path
       style="display:inline;fill:#3b02b7;fill-opacity:1;stroke-width:4.14303"
       d="m 703.26871,257.58613 c 12.50189,-3.3093 24.2683,-5.1548 34.62646,3.8563 -10.41742,-12.1955 -25.81634,-8.2141 -34.62646,-3.8563 z"
       id="path10"
       sodipodi:nodetypes="ccc" />
    <path
       style="display:inline;fill:#3b02b7;fill-opacity:1;stroke-width:3.06566"
       d="m 763.08087,251.89213 c 9.8283,-4.3187 16.85656,-4.124 25.35777,1.4624 -8.26038,-8.1385 -15.75312,-8.0726 -25.35777,-1.4624 z"
       id="path10-8-6"
       sodipodi:nodetypes="ccc" />
    <path
       style="display:inline;fill:#3b02b7;fill-opacity:1;stroke-width:3.01349"
       d="m 733.8612,251.92623 c -9.44751,-4.4617 -19.9203,-4.2203 -28.19796,1.2408 8.07393,-8.0164 18.99258,-7.9904 28.19796,-1.2408 z"
       id="path10-8-6-6"
       sodipodi:nodetypes="ccc" />
    <path
       style="display:inline;fill:#ffffff;stroke-width:3.94212"
       d="m 758.44556,263.47633 c 4.5858,-6.7019 6.92441,-8.1478 13.80001,-9.372 6.42208,0.4939 10.97719,0.1863 16.66345,2.9697 -2.88962,5.4128 0.0143,13.7152 -12.6191,14.3386 -7.92781,-0.099 -1.48719,0.1107 -9.52823,-0.4412 -3.23733,-2.2659 -6.56446,-5.6157 -8.31613,-7.4951 z"
       id="path8-9"
       sodipodi:nodetypes="cccccc" />
    <path
       style="display:inline;fill:#3b02b7;fill-opacity:1;stroke-width:3.92566"
       d="m 789.20187,257.15443 c -11.22443,-3.3092 -21.5648,-4.9078 -30.86455,4.1033 9.35295,-12.1954 22.95467,-8.461 30.86455,-4.1033 z"
       id="path10-5"
       sodipodi:nodetypes="ccc" />
    <path
       style="display:inline;fill:#3b02b7;fill-opacity:1;stroke-width:4.13743"
       d="m 765.40083,256.29203 c 9.23589,-3.8758 15.9915,-1.2231 22.01293,0.2966 0.49064,8.2494 -4.11955,12.7375 -10.52813,14.9031 -1.48166,-0.095 -4.18058,-0.01 -5.65553,-0.281 -4.63234,-0.999 -11.05772,-10.5241 -5.82927,-14.9187 z"
       id="path9-5"
       sodipodi:nodetypes="ccccc" />
    <path
       style="display:inline;fill:#333333;fill-opacity:0.1;stroke-width:6.51894"
       d="m 753.26871,272 1.61552,11.29665 -1.01162,8.89221 2.28229,-8.61665 z"
       id="path32"
       sodipodi:nodetypes="ccccc" />
    <path
       id="path2"
       style="fill:#3b02b7;fill-opacity:1;stroke-width:3.77953"
       d="m 749.4784,164.06357 c -52.12735,-1.47659 -67.51256,21.90794 -72.47449,87.89439 3.56957,-4.60637 5.66963,-11.44355 7.44336,-16.87691 -4.21852,22.0607 -4.45672,53.27456 -0.47807,74.9441 -0.23464,-6.90225 -0.4392,-13.80596 -0.25,-20.71093 5.93086,31.83196 24.72397,44.20257 7.62064,75.0432 10.23923,-7.52469 15.12611,-13.80963 15.03711,-26.47461 3.07765,7.77629 9.57454,12.58667 15.47657,18.22071 -12.93825,-17.82177 -15.58328,-37.5643 -14.99805,-58.07618 4.23793,4.47641 9.00631,7.20641 14.98828,8.31446 -12.16367,-10.93352 -13.17606,-14.01937 -14.46875,-18.2461 1.20647,-17.36594 2.10011,-25.57209 2.10011,-43.08216 4.2847,8.79015 6.71932,17.04882 9.53941,26.20513 1.6757,-10.61003 5.57088,-24.83274 3.31873,-35.44277 3.0233,7.20899 3.28295,18.03066 10.96252,25.23965 -1.12385,-8.7072 1.60192,-18.55425 3.31873,-24.01504 6.84816,6.68108 7.69245,17.75993 10.14807,25.23965 2.06203,-5.15438 3.69141,-17.25064 2.91053,-26.87246 3.05048,7.20898 3.41624,18.03066 3.21056,25.23964 3.11573,-3.25555 4.63514,-15.9589 4.13319,-25.64589 0.9478,8.16704 -0.80805,21.30374 2.39611,26.4623 0.75791,-7.5199 5.57686,-19.84006 7.80506,-28.09511 0.38076,7.74166 2.76602,22.46775 5.76057,29.46261 0.68689,-9.64812 4.38663,-17.2533 7.05742,-24.12395 19.26468,44.81071 -3.01481,89.67062 -12.27039,105.862 6.84574,-3.44406 10.33374,-7.9296 14.28516,-14.11133 2.18664,14.89087 10.29345,27.08897 17.33008,40.09765 l -2.85547,-12.65039 c -9.12962,-34.83229 8.95338,-51.02657 9.73253,-85.96115 l 3.48828,16.01172 c 2.95585,-15.64952 -1.98874,-49.93484 -7.53808,-68.181 l 7.39625,10.27189 c -18.81421,-59.99683 -19.1305,-64.78186 -60.12597,-65.94312 z"
       sodipodi:nodetypes="scccccccccccccccccccccccccccccccs" />
    <path
       style="fill:#3b02b7;fill-opacity:1;stroke-width:3.77953"
       d="M 687.49645,656.72068 C 620.40805,907.76485 572.6731,1160.2171 562.04715,1420.094 690.55351,1228.197 735.70141,1047.8748 755.85651,803.4279 c 6.44073,231.9183 49.08515,407.0272 158.5713,606.0947 13.6026,-259.3425 -57.99713,-507.52486 -114.71719,-757.83295 -44.90269,13.84267 -68.91069,12.15357 -112.21417,5.03103 z"
       id="path17"
       sodipodi:nodetypes="cccccc" />
    <path
       id="path20"
       style="display:inline;fill:#e6e6e6;fill-opacity:1;stroke-width:3.77953"
       d="m 806.58203,397.32227 -53.5,31.51367 -81.23242,-27.46094 c -11.16487,41.89058 -20.12085,74.39646 -2.74805,117.48242 l 83.67969,-65.00494 60.77734,55.27447 c 11.84262,-43.42579 -0.76078,-73.68451 -6.97656,-111.80468 z"
       sodipodi:nodetypes="ccccccc" />
    <path
       id="path19"
       style="fill:#3b02b7;fill-opacity:1;stroke-width:3.77953"
       d="m 804.92969,352.02539 c -11.38141,-0.59772 -30.50186,9.0245 -58.29883,35.76563 -89.64694,-63.21106 -121.02446,-14.29746 -26.47461,47.8789 -20.19342,48.10931 -30.39318,84.12046 -33.38477,106.89258 -3.10896,-1.05605 -6.34117,-1.52418 -9.29687,-0.55469 -3.87146,1.26987 -8.54785,5.10659 -8.09961,9.15625 1.20297,10.86825 8.26488,18.53146 21.10303,19.04281 12.06988,0.48075 33.36737,-25.78745 61.32861,-106.83968 40.67568,162.95926 97.35725,134.5849 25.89453,-32.4668 39.85522,-26.78043 52.26762,-77.56 27.22852,-78.875 z"
       sodipodi:nodetypes="scccsssccs" />
    <path
       style="fill:#e6e6e6;fill-opacity:1;stroke-width:3.77953"
       d="m 748.4164,389.29256 -13.05378,39.16132 17.11495,24.94722 14.21411,-26.68772 z"
       id="path22"
       sodipodi:nodetypes="ccccc" />
    <path
       style="fill:#e6e6e6;stroke-width:3.77953"
       d="m 707.27531,559.82462 -6.97166,-29.97816 25.44657,2.78867 9.41175,20.91499 2.0915,88.88872 -3.13725,11.15466 -6.97167,-10.80608 -4.88016,-71.80814 z"
       id="path5" />
    <path
       d="M 419.43339,463.11077 C 378.25921,406.58573 342.73989,327.9032 300.91863,242.98258 l -23.6539,-37.06488 c -1.54778,-2.05042 0.022,-4.58453 1.33995,-6.8304 -0.79576,-3.42189 1.78042,-5.28188 3.34299,-6.86062 1.40687,-5.18611 4.41033,-4.83983 5.60368,-6.8567 1.81055,-3.57675 3.75082,-4.71804 7.21504,-6.91702 5.16813,-0.35544 11.85959,1.59193 16.56338,3.92199 5.96804,3.25033 5.47566,5.94607 7.92181,12.23454 l 6.70388,37.74794 c 54.53282,74.24145 100.22939,141.64784 132.78792,198.88975"
       style="display:inline;fill:#ffe6d5;fill-opacity:1;stroke-width:3.42516"
       id="path1-05"
       sodipodi:nodetypes="ccccccccccc" />
    <path
       style="display:inline;fill:#333333;fill-opacity:1;stroke-width:3.77953"
       d="m 280.54681,212.58917 19.82912,30.65852 26.02369,-10.3841 -6.81464,-37.74584 c -5.12145,5.981 -7.05107,-1.97978 -8.07697,-6.52164 -3.42475,-2.55489 -4.99161,-3.55455 -11.97323,-4.19689 z"
       id="path12"
       sodipodi:nodetypes="ccccccc" />
    <path
       style="display:inline;fill:#e6e6e6;stroke-width:3.46322"
       d="m 790.68657,559.54458 5.85356,-29.97816 -21.36551,2.78867 -7.90232,20.91499 -1.75607,88.88872 2.6341,11.15466 5.85357,-10.80608 4.09749,-71.80814 z"
       id="path5-0" />
    <path
       style="fill:#333333;fill-opacity:1;stroke-width:3.77953"
       d="m 719.74666,167.24472 c 13.96791,-1.71512 29.20211,-2.53639 48.22994,-0.6798 l -0.55546,-3.82335 c -14.25683,-2.16328 -30.03109,-1.79749 -46.98161,0.52873 z"
       id="path11"
       sodipodi:nodetypes="ccccc" />
    <path
       id="path24"
       style="fill:#e6e6e6;fill-opacity:1;stroke-width:3.77953"
       d="m 673.11958,161.41209 c 6.02279,18.39718 17.63056,46.96536 33.22461,53.43164 -23.10387,5.46309 -54.20117,25.0664 -54.20117,25.0664 0,0 38.45152,12.08689 56.60547,6.50586 12.43368,-3.82245 29.56836,-25.46484 29.56836,-25.46484 -3.35023,-8.20594 2.38257,-33.51235 -65.19727,-59.53906 z"
       sodipodi:nodetypes="cccscc" />
    <path
       style="fill:#333333;fill-opacity:1;stroke-width:3.77953"
       d="m 353.27435,583.77857 753.20745,-4.59678 -0.2843,11.63758 6.7788,13.91132 90.3183,-0.20318 0.7556,-68.8751 -90.3629,-3.19145 -6.6563,10.89117 -0.3077,14.41303 -754.81147,-3.03489 100.23262,-47.53863 83.57843,30.93674 150.86395,3.62791 37.32772,-0.54508 -36.6469,-13.2401 -152.56225,-9.04653 -92.61673,-38.93305 -122.52829,61.64095 109.26896,-93.32494 80.7705,38.67365 124.92178,1.16626 27.88564,-2.39928 -28.83964,-10.20085 -115.39562,-7.19407 -99.44788,-48.77341 -116.48287,99.89299 -40.71097,21.11603 -106.08019,4.81494 1.48678,56.75178 107.28951,-0.57957 45.5897,26.16862 110.79721,92.15848 82.55935,-53.91464 132.06767,-9.77634 30.57586,-6.99441 -30.94295,-5.3348 -125.27705,1.85762 -76.90027,41.7294 -110.8139,-88.12703 127.08454,58.74406 88.00584,-44.38372 147.70571,-3.00531 41.37197,-7.50006 -40.47316,-5.38216 -150.30754,-5.66947 -80.61815,37.54665 z"
       id="path25"
       sodipodi:nodetypes="ccccccccccccccccccccccccccccccccccccccccccccccc" />
    <path
       style="fill:#e6e6e6;fill-opacity:1;stroke-width:3.77953"
       d="m 157.74476,601.58264 32.96686,-15.88257 24.16169,16.20472 20.24712,-17.40989 29.13271,16.77082 23.64571,-20.21138 33.31489,17.71919 63.20286,-29.91851 -65.0685,-27.71057 -33.33711,17.30209 -24.94085,-18.13068 -26.03671,19.33262 -24.4581,-18.15735 -21.38243,19.18346 -32.99167,-14.64871 c -11.44343,22.8967 -10.18237,32.65655 1.54353,55.55676 z"
       id="path26"
       sodipodi:nodetypes="cccccccccccccccc" />
    <path
       style="fill:#3b02b7;fill-opacity:1;stroke-width:3.77953"
       d="m 444.26084,581.64145 -94.05216,27.63532 134.93669,-11.32895 140.74553,-16.54846 -68.53577,-8.8837 66.51552,-16.77877 -134.18228,-19.79927 -143.40686,-5.76991 101.23405,25.41169 -53.70728,7.88631 -0.37309,9.57508 z"
       id="path28"
       sodipodi:nodetypes="cccccccccccc" />
    <path
       style="fill:#3b02b7;fill-opacity:1;stroke-width:3.77953"
       d="m 477.88327,663.88648 -177.81458,89.69648 123.24779,-33.52959 52.312,-35.24292 z"
       id="path29"
       sodipodi:nodetypes="ccccc" />
    <path
       style="fill:#3b02b7;fill-opacity:1;stroke-width:3.77953"
       d="m 520.60569,599.40807 -20.15126,32.0503 -50.86444,26.10776 -156.86393,37.74079 z"
       id="path30"
       sodipodi:nodetypes="ccccc" />
    <path
       style="fill:#3b02b7;fill-opacity:1;stroke-width:3.77953"
       d="m 513.65525,530.51237 -219.01435,-83.78664 146.78953,33.55141 56.36948,24.46182 z"
       id="path31" />
    <path
       style="fill:#3b02b7;fill-opacity:1;stroke-width:3.77953"
       d="M 480.20116,471.51152 469.54909,444.06758 417.65689,418.70976 324.06577,404.4655 Z"
       id="path33"
       sodipodi:nodetypes="ccccc" />
    <path
       d="m 902.17092,689.40457 c 66.77172,8.06698 156.89948,31.79426 243.96698,53.46902 l 42.8474,-2.94622 c 6.2752,2.42016 9.4946,5.87202 11.0794,7.67533 5.7589,4.42297 8.2311,10.59806 8.3424,13.60411 -0.4317,2.92128 -0.031,5.11643 -3.2672,8.97182 -1.2918,3.27943 -2.2107,5.83094 -4.4027,7.8374 -0.7214,2.68558 -2.3884,4.62908 -4.522,5.75039 -1.1368,2.06764 -2.7484,3.33829 -4.975,3.77946 l -43.7304,-15.39875 C 1043.9212,758.15628 953.12428,744.59871 889.26961,731.95284 m 296.09609,53.47645 -40.3157,-13.40008 0.9057,-29.24885 38.9039,-2.69088 c -4.5583,6.4205 3.6329,6.35927 8.288,6.25156 3.31,2.70187 6.9465,6.13826 9.265,12.7549 z"
       style="display:inline;fill:#ffe6d5;fill-opacity:1;stroke-width:3.42516"
       id="path1-0" />
    <path
       style="display:inline;fill:#333333;fill-opacity:1;stroke-width:3.77953"
       d="m 1184.9717,785.40314 -40.3157,-13.40001 0.9057,-29.2488 38.9039,-2.69102 c -4.5582,6.42061 3.6329,6.35937 8.288,6.25165 3.3099,2.70183 6.9465,6.13819 9.2649,12.75486 z"
       id="path12-8"
       sodipodi:nodetypes="ccccccc" />
  </g>
</svg>
